<?xml version="1.0" encoding="UTF-8"?>
<!DOCTYPE svg PUBLIC "-//W3C//DTD SVG 1.1//EN" "http://www.w3.org/Graphics/SVG/1.1/DTD/svg11.dtd">
<!-- Creator: CorelDRAW X6 -->
<svg xmlns="http://www.w3.org/2000/svg" xml:space="preserve" width="5.82677in" height="4.13386in" version="1.1" style="shape-rendering:geometricPrecision; text-rendering:geometricPrecision; image-rendering:optimizeQuality; fill-rule:evenodd; clip-rule:evenodd"
viewBox="0 0 5827 4134"
 xmlns:xlink="http://www.w3.org/1999/xlink">
 <defs>
  <style type="text/css">
   <![CDATA[
    .str3 {stroke:#144B9C;stroke-width:3}
    .str0 {stroke:#2F318B;stroke-width:3}
    .str6 {stroke:#332C2B;stroke-width:3}
    .str2 {stroke:#60B63E;stroke-width:3}
    .str5 {stroke:black;stroke-width:3}
    .str1 {stroke:#04B8FF;stroke-width:3}
    .str4 {stroke:#FFDE04;stroke-width:3}
    .fil0 {fill:none}
    .fil4 {fill:none;fill-rule:nonzero}
    .fil5 {fill:#008FD7}
    .fil2 {fill:#2F318B}
    .fil1 {fill:#332C2B}
    .fil7 {fill:#566892}
    .fil6 {fill:#60B63E}
    .fil15 {fill:#E62129}
    .fil3 {fill:#FEFEFE}
    .fil8 {fill:#FFF000}
    .fil12 {fill:#027014}
    .fil11 {fill:#FEFFE0}
    .fil10 {fill:#FFDE04}
    .fil9 {fill:#332C2B;fill-rule:nonzero}
    .fil13 {fill:#027014;fill-rule:nonzero}
    .fil14 {fill:#FFDE04;fill-rule:nonzero}
   ]]>
  </style>
 </defs>
 <g id="Layer_x0020_1">
  <metadata id="CorelCorpID_0Corel-Layer"/>
  <g id="_511852752">
   <rect class="fil0" width="5827" height="4134"/>
   <g>
    <path class="fil1" d="M1556 98l2715 0 0 3190c8,149 -164,207 -217,251l-1156 496 -1107 -496c-82,-48 -217,-89 -235,-248l0 -3193z"/>
    <path class="fil2" d="M1601 165l2624 0 0 3082c7,144 -158,200 -210,243l-1117 479 -1070 -479c-79,-46 -210,-86 -227,-240l0 -3085z"/>
    <g>
     <path class="fil3" d="M3387 2737l-98 -180c166,-110 432,-297 423,-713 -12,-720 -776,-701 -806,-994 -31,300 -794,281 -806,1000 -9,417 258,603 423,713l-98 180 963 -6z"/>
     <path id="1" class="fil4 str0" d="M3387 2737l-98 -180c166,-110 432,-297 423,-713 -12,-720 -776,-701 -806,-994 -31,300 -794,281 -806,1000 -9,417 258,603 423,713l-98 180 963 -6z"/>
    </g>
    <g>
     <path class="fil5" d="M2148 1838c77,-413 291,-562 558,-688 153,44 46,69 159,161 -18,107 -316,417 -718,527z"/>
     <path id="1" class="fil4 str1" d="M2148 1838c77,-413 291,-562 558,-688 153,44 46,69 159,161 -18,107 -316,417 -718,527z"/>
    </g>
    <g>
     <path class="fil5" d="M3663 1825c-40,-388 -297,-540 -558,-682 -153,44 -46,69 -159,161 -15,107 313,410 718,521z"/>
     <path id="1" class="fil4 str1" d="M3663 1825c-40,-388 -297,-540 -558,-682 -153,44 -46,69 -159,161 -15,107 313,410 718,521z"/>
    </g>
    <g>
     <path class="fil6" d="M3328 2766l-120 -237c138,-82 377,-240 442,-581l-1493 3c49,350 297,511 445,584l-120 237c267,88 549,82 846,-6z"/>
     <path id="1" class="fil4 str2" d="M3328 2766l-120 -237c138,-82 377,-240 442,-581l-1493 3c49,350 297,511 445,584l-120 237c267,88 549,82 846,-6z"/>
    </g>
    <g>
     <path class="fil7" d="M2180 1891c248,-88 510,-226 667,-418 46,-57 91,-3 108,-25 177,226 425,336 687,459l-1463 -16z"/>
     <path id="1" class="fil4 str3" d="M2180 1891c248,-88 510,-226 667,-418 46,-57 91,-3 108,-25 177,226 425,336 687,459l-1463 -16z"/>
    </g>
    <g>
     <path class="fil8" d="M3491 2284c-16,-20 -25,-50 -51,-57 -49,-14 -177,-59 -188,-113 -121,-75 -134,-182 -111,-202 29,-10 18,-3 28,-50 -51,29 -31,30 -55,25 -43,-57 -271,57 -379,-28 -62,-33 -12,-202 -41,-219 19,7 124,8 20,-26 5,-11 136,-66 -9,-21 90,-52 27,-28 -8,-9 103,-81 81,-197 71,-156 -48,200 -45,-28 -45,-17 -4,102 11,124 -50,187 -72,29 -129,25 -181,49 -6,18 11,13 5,31 38,24 77,-1 115,21 -1,35 -22,142 -3,214 8,29 3,58 37,61 -88,-6 -246,12 -244,37 3,52 159,154 232,222 -10,-55 32,-40 -90,-106 -55,-30 -102,-88 -84,-104 42,17 205,37 255,14 57,52 185,11 267,-15 -20,-19 -28,-26 -35,-49 6,9 1,20 38,51 49,42 106,100 217,105 62,55 181,130 290,154z"/>
     <path id="1" class="fil9" d="M3440 2230l2 -7 0 0 3 1 2 1 2 1 2 1 2 1 2 1 2 2 2 2 2 2 2 2 2 2 2 2 2 2 2 2 1 2 1 2 1 2 1 2 1 2 1 2 1 2 1 2 1 2 1 2 1 2 1 2 1 2 1 2 1 2 1 2 1 2 1 2 -6 5 -2 -2 -2 -2 -1 -2 -1 -2 -1 -2 -1 -2 -1 -2 -1 -2 -1 -2 -1 -2 -1 -2 -1 -2 -1 -2 -1 -2 -1 -2 -1 -2 -1 -2 -1 -2 -1 -2 -1 -2 -1 -2 -2 -2 -2 -2 -2 -1 -2 -1 -2 -1 -2 -1 -2 -1 -2 -1 -2 -1 -2 -1 -2 -1 0 0zm0 0l0 0 0 0 0 0zm-189 -113l4 -6 2 2 1 5 2 5 2 5 3 5 4 5 4 5 5 4 5 4 5 4 6 4 6 4 6 4 7 4 7 4 7 4 7 4 7 4 7 3 8 3 8 3 7 3 7 3 7 3 7 3 7 3 7 2 7 2 6 2 6 2 6 2 5 2 5 1 -2 7 -5 -1 -5 -2 -6 -2 -6 -2 -6 -2 -7 -2 -7 -2 -7 -3 -7 -3 -7 -3 -8 -3 -8 -3 -8 -3 -8 -3 -8 -4 -8 -4 -7 -4 -7 -4 -7 -4 -7 -4 -7 -4 -6 -4 -6 -4 -6 -5 -5 -5 -5 -5 -4 -5 -4 -5 -3 -5 -3 -5 -2 -5 -2 -5 2 2zm4 -6l1 1 0 1 -2 -2zm-114 -202l2 7 1 -1 -2 2 -2 2 -1 3 -1 3 -1 4 -1 4 0 4 0 5 0 5 0 6 1 6 1 6 1 6 2 7 2 7 3 7 3 7 4 7 4 7 4 8 5 8 5 8 6 8 6 8 7 8 7 8 8 8 9 8 9 7 10 7 10 7 11 7 -4 6 -11 -7 -11 -7 -10 -8 -9 -8 -9 -8 -8 -8 -8 -8 -7 -8 -7 -8 -6 -8 -6 -8 -5 -8 -5 -8 -4 -8 -4 -8 -3 -7 -3 -7 -2 -7 -2 -7 -2 -7 -1 -6 -1 -6 0 -6 0 -6 0 -5 1 -5 1 -5 1 -4 1 -4 2 -3 2 -3 2 -3 1 -1zm-1 1l1 0 1 0 -1 1zm32 -44l-3 -6 5 4 -1 4 -1 4 -1 4 -1 3 -1 3 0 3 0 3 0 2 0 2 0 2 0 2 0 2 0 2 0 1 0 1 0 1 -1 1 -1 1 -1 1 -1 1 -1 1 -1 1 -1 1 -1 1 -1 1 -2 1 -2 1 -2 1 -2 1 -2 1 -2 1 -3 1 -2 -7 3 -1 2 -1 2 -1 2 -1 2 -1 2 -1 1 -1 1 -1 1 0 1 0 1 0 0 0 0 0 0 0 0 -1 0 -1 0 -1 0 -1 0 -1 0 -1 0 -2 0 -2 0 -2 0 -2 0 -2 0 -3 0 -3 1 -3 1 -3 1 -4 1 -4 1 -4 5 4zm-3 -6l7 -4 -2 8 -5 -4zm-56 30l6 -4 -2 -1 2 1 2 0 2 0 1 0 1 0 1 0 1 0 1 0 0 0 0 0 0 0 0 0 0 0 0 0 1 0 1 0 1 -1 1 -1 1 -1 1 -1 1 -1 2 -1 2 -1 2 -2 2 -2 3 -2 3 -2 3 -2 4 -2 4 -2 4 -2 5 -3 3 6 -5 3 -4 2 -4 2 -3 2 -3 2 -3 2 -2 2 -2 2 -2 1 -2 1 -2 1 -1 1 -1 1 -1 1 -1 1 -1 1 -1 1 -1 1 -1 1 -1 0 -1 0 -1 0 -1 0 -1 0 -1 0 -1 0 -1 0 -1 0 -2 0 -2 0 -2 0 -2 -1 -2 -1zm2 1l-1 0 -1 -1 2 1zm-380 -28l3 -6 1 0 10 7 11 6 11 5 12 4 12 3 13 3 13 2 14 1 14 1 14 0 14 -1 14 -1 14 -1 14 -2 14 -2 14 -2 14 -2 14 -2 14 -2 13 -2 13 -2 12 -1 12 -1 11 -1 11 0 10 0 9 1 9 2 8 2 7 3 6 4 5 5 -6 4 -4 -4 -5 -4 -6 -3 -7 -2 -8 -1 -9 -1 -10 0 -10 0 -11 1 -12 1 -12 1 -13 2 -13 2 -14 2 -14 2 -14 2 -14 2 -14 2 -15 2 -15 1 -15 1 -15 1 -14 0 -14 -1 -14 -1 -14 -2 -13 -3 -13 -3 -13 -4 -12 -5 -11 -6 -11 -8 1 0zm3 -6l0 0 0 0 -1 0zm-42 -219l-2 7 3 -6 3 3 3 4 2 4 1 5 1 5 1 6 1 6 0 7 0 7 0 8 0 8 0 8 0 9 0 9 0 9 0 9 0 9 0 9 0 9 0 9 1 9 1 8 1 8 1 8 2 7 2 7 3 6 3 6 3 5 4 5 4 4 5 3 -3 6 -6 -4 -5 -5 -5 -5 -4 -6 -3 -6 -3 -7 -2 -7 -2 -8 -2 -8 -1 -8 -1 -9 -1 -9 0 -9 0 -9 0 -9 0 -9 0 -9 0 -9 0 -9 0 -9 0 -8 0 -8 0 -8 0 -7 0 -7 0 -6 -1 -5 -1 -5 -1 -4 -1 -3 -2 -2 -2 -1 3 -6zm16 -24l7 3 -2 -5 9 3 8 3 7 3 6 3 5 2 4 2 3 2 2 2 2 2 1 3 0 3 -2 2 -2 2 -2 1 -3 1 -3 1 -3 1 -4 0 -4 0 -4 0 -4 0 -4 0 -4 0 -4 0 -4 0 -4 0 -4 0 -4 0 -3 0 -3 -1 -3 -1 -2 -1 2 -7 2 1 2 1 3 1 3 0 3 0 4 0 4 0 4 0 4 0 4 0 4 0 4 0 4 0 4 0 3 0 3 0 2 -1 2 -1 1 -1 1 0 0 0 0 0 0 0 -1 -1 -2 -1 -3 -2 -4 -2 -5 -2 -6 -2 -7 -3 -8 -3 -9 -3 -2 -5zm2 5l-4 -1 1 -4 2 5zm-9 -28l4 6 -3 -7 13 -4 11 -3 10 -3 8 -2 7 -2 6 -1 5 -1 4 -1 3 0 3 0 3 3 0 4 -2 2 -2 2 -2 2 -3 2 -3 2 -3 2 -4 2 -4 2 -4 2 -4 2 -4 2 -4 2 -4 2 -4 2 -3 2 -3 2 -2 2 -2 1 -1 1 0 0 -7 -3 1 -2 2 -2 2 -2 3 -2 3 -2 3 -2 4 -2 4 -2 4 -2 4 -2 4 -2 4 -2 4 -2 4 -2 3 -2 3 -2 3 -2 2 -1 1 -1 0 0 0 2 2 2 0 0 -2 0 -3 1 -4 1 -6 1 -7 2 -8 2 -10 3 -11 3 -13 4 -3 -7zm-9 -8l4 6 -4 -6 3 -2 4 -2 4 -2 4 -2 4 -2 4 -2 4 -2 4 -2 4 -2 3 -1 3 -1 3 -1 3 -1 3 -1 2 -1 2 -1 2 0 2 0 3 1 2 4 -1 2 -1 2 -2 2 -2 2 -3 2 -3 2 -4 3 -5 3 -6 3 -6 4 -7 4 -8 5 -4 -6 8 -5 7 -4 6 -4 5 -3 5 -3 4 -3 3 -2 3 -2 2 -2 1 -1 0 0 0 1 1 3 1 1 0 0 -1 0 -2 0 -2 1 -2 1 -3 1 -3 1 -3 1 -3 1 -3 2 -4 2 -4 2 -4 2 -4 2 -4 2 -4 2 -3 2 -3 2 -4 -6zm77 -152l-7 -2 0 0 1 -4 1 -3 1 -2 2 -2 4 0 3 2 1 2 1 3 1 3 0 4 0 4 0 5 0 5 0 6 -1 6 -1 6 -1 7 -2 7 -2 7 -3 8 -3 8 -3 8 -4 8 -4 8 -5 8 -6 8 -6 8 -7 8 -7 8 -8 8 -9 8 -9 8 -4 -6 9 -8 8 -8 8 -8 7 -8 7 -8 6 -8 5 -8 5 -8 4 -8 4 -8 3 -8 3 -7 2 -7 2 -7 2 -7 1 -6 1 -6 1 -6 0 -5 0 -5 0 -4 0 -4 0 -3 -1 -2 -1 -2 0 -1 1 0 2 0 0 0 -1 1 -1 2 -1 3 0 0zm0 0l0 0 0 0 0 0zm-45 -18l-7 0 0 0 7 0 0 1 0 2 0 3 0 4 0 5 0 5 0 6 0 6 0 7 0 7 0 7 1 7 1 7 1 6 1 6 1 5 1 5 1 4 1 2 1 1 0 0 0 0 1 -1 2 -3 3 -5 3 -7 3 -9 3 -11 4 -13 4 -15 4 -17 7 2 -4 18 -4 15 -4 13 -4 11 -3 9 -3 7 -3 5 -3 4 -3 3 -4 1 -4 -2 -2 -3 -2 -4 -1 -4 -1 -5 -1 -6 -1 -6 -1 -7 -1 -7 -1 -7 0 -7 0 -7 0 -7 0 -7 0 -6 0 -6 0 -5 0 -4 0 -3 0 -2 0 -1 7 0 0 0zm0 0l0 0 0 0 0 0zm-52 190l-3 -7 -1 1 5 -6 5 -6 5 -5 4 -5 4 -5 3 -5 3 -5 3 -5 2 -5 2 -4 2 -4 2 -4 1 -4 1 -5 1 -5 1 -5 1 -5 1 -5 0 -5 0 -5 0 -6 0 -6 0 -6 0 -6 0 -7 0 -7 0 -7 0 -8 0 -8 0 -9 0 -9 0 -9 7 0 0 9 0 9 0 8 0 8 0 8 0 7 0 7 0 7 0 6 0 6 0 6 0 6 0 5 0 5 -1 5 -1 5 -1 5 -1 5 -1 5 -2 5 -2 5 -2 5 -2 5 -3 5 -3 5 -3 5 -4 5 -4 5 -4 5 -5 5 -5 6 -6 6 -1 1zm1 -1l-1 1 -1 0 1 -1zm-181 48l-7 -2 2 -2 5 -2 5 -2 5 -2 5 -2 5 -2 5 -2 5 -1 5 -1 5 -1 5 -1 5 -1 5 -1 5 -1 5 -1 6 -1 6 -1 6 -1 6 -1 6 -1 6 -1 6 -1 6 -1 6 -1 6 -1 6 -2 6 -2 6 -2 6 -2 6 -2 6 -2 7 -2 7 -3 3 7 -7 3 -7 2 -7 2 -7 2 -6 2 -6 2 -6 2 -6 2 -6 2 -6 1 -6 1 -6 1 -6 1 -6 1 -6 1 -6 1 -6 1 -6 1 -5 1 -5 1 -5 1 -5 1 -5 1 -5 1 -5 1 -5 1 -5 2 -5 2 -5 2 -5 2 -5 2 -5 2 2 -2zm-7 -2l0 -1 1 -1 -2 2zm10 29l-4 6 -2 -4 0 -1 0 -1 0 -1 0 -1 0 -1 0 -1 0 -1 0 -1 0 -1 0 -1 0 -1 0 0 0 -1 0 -1 0 -1 0 -1 -1 -1 -1 -1 -1 -1 -1 -1 -1 -1 -1 -1 0 -1 0 -1 0 -1 0 -1 0 -1 0 -1 0 -2 0 -2 0 -2 1 -2 7 2 0 1 0 1 0 1 0 1 0 1 0 1 0 1 0 1 0 1 0 1 0 0 0 1 0 1 0 1 0 1 0 1 1 1 1 1 1 1 1 1 1 1 1 1 0 1 0 1 0 1 0 1 0 1 0 1 0 2 0 2 0 2 -1 2 -2 -4zm-4 6l-2 -1 1 -3 2 4zm120 18l-7 0 2 3 -3 -2 -3 -2 -3 -1 -3 -1 -3 -1 -3 -1 -3 -1 -3 -1 -3 0 -3 0 -3 0 -4 0 -4 0 -4 0 -4 0 -4 0 -4 0 -4 0 -4 0 -4 0 -4 0 -4 0 -4 0 -4 0 -4 -1 -4 -1 -4 -1 -4 -1 -4 -1 -4 -2 -4 -2 -4 -2 4 -6 3 2 3 2 3 1 3 1 3 1 3 1 3 1 3 1 3 0 3 0 4 0 4 0 4 0 4 0 4 0 4 0 4 0 4 0 4 0 4 0 4 0 4 0 4 0 4 0 4 1 4 1 4 1 4 1 4 1 4 2 4 2 4 2 2 3zm-2 -3l2 1 0 2 -2 -3zm-1 216l-7 2 0 0 -2 -7 -2 -7 -1 -7 -1 -7 -1 -8 -1 -8 -1 -8 0 -8 0 -8 0 -8 0 -8 0 -8 0 -8 0 -8 0 -8 1 -8 1 -7 1 -7 1 -7 1 -7 1 -7 1 -7 1 -6 1 -6 1 -6 1 -6 1 -5 1 -5 0 -5 0 -4 0 -4 0 -3 7 0 0 4 0 4 0 4 0 5 -1 5 -1 5 -1 6 -1 6 -1 6 -1 6 -1 7 -1 7 -1 7 -1 7 -1 7 -1 7 -1 8 0 8 0 8 0 8 0 8 0 8 0 8 0 8 0 8 1 8 1 8 1 7 1 7 1 7 1 7 2 7 0 0zm-7 2l0 0 0 0 0 0zm40 64l1 -7 -1 7 -3 0 -3 -1 -3 -1 -3 -1 -2 -1 -2 -1 -2 -1 -2 -2 -2 -2 -2 -2 -1 -2 -1 -2 -1 -2 -1 -2 -1 -2 -1 -2 -1 -2 -1 -2 -1 -2 -1 -2 -1 -2 0 -3 0 -3 0 -3 0 -3 0 -3 0 -3 0 -3 -1 -3 -1 -3 -1 -3 -1 -3 7 -2 1 3 1 3 1 3 1 3 1 3 0 3 0 3 0 3 0 3 0 2 0 2 0 2 1 2 1 2 1 2 1 2 1 2 1 2 1 2 1 2 1 2 1 1 1 1 1 1 1 1 2 1 2 1 2 1 2 1 2 1 3 1 3 0 -1 7zm-240 33l-7 0 0 0 0 -4 2 -3 3 -3 3 -3 4 -2 5 -2 5 -2 6 -2 6 -2 7 -2 7 -2 8 -2 8 -2 9 -2 9 -1 9 -1 10 -1 10 -1 10 -1 10 -1 10 -1 10 -1 10 -1 10 -1 10 0 10 0 10 0 10 0 9 0 9 0 9 0 9 1 -1 7 -8 -1 -9 0 -9 0 -9 0 -10 0 -10 0 -10 0 -10 0 -10 1 -10 1 -10 1 -10 1 -10 1 -10 1 -10 1 -9 1 -9 1 -9 1 -9 2 -8 2 -8 2 -7 2 -7 2 -6 2 -6 2 -5 2 -4 2 -3 2 -2 2 -2 2 -1 1 0 1 0 0zm0 0l0 0 0 0 0 0zm225 223l7 -1 -6 3 -7 -6 -7 -7 -8 -7 -8 -7 -9 -7 -9 -7 -9 -7 -9 -7 -9 -8 -10 -8 -10 -8 -10 -8 -10 -8 -9 -8 -9 -8 -9 -8 -9 -8 -9 -8 -8 -7 -8 -7 -8 -7 -7 -7 -7 -7 -6 -7 -6 -7 -5 -7 -5 -6 -4 -6 -3 -6 -3 -6 -2 -6 -1 -6 7 0 1 4 1 5 2 5 3 6 4 6 4 6 5 6 6 7 6 7 7 7 7 7 8 7 8 7 8 7 9 7 9 8 9 8 9 8 9 8 10 8 10 8 10 8 10 8 9 8 9 7 9 7 9 7 9 7 8 7 8 7 8 7 7 7 -6 3zm-88 -104l3 -6 0 0 11 6 10 5 9 5 8 5 8 4 7 4 6 4 5 3 5 3 4 3 4 3 3 3 3 3 2 3 2 3 1 3 1 3 1 3 0 3 0 3 0 3 0 3 0 3 0 3 0 3 0 3 0 3 0 3 0 4 0 4 1 4 1 5 -7 1 -1 -5 -1 -5 0 -4 0 -4 0 -4 0 -3 0 -3 0 -3 0 -3 0 -2 0 -2 0 -2 0 -2 0 -2 -1 -2 -1 -2 -1 -2 -1 -2 -2 -2 -2 -2 -3 -2 -3 -3 -4 -3 -5 -3 -5 -3 -6 -4 -7 -4 -7 -4 -8 -5 -9 -5 -10 -5 -11 -6 0 0zm3 -6l0 0 -1 -1 1 1zm-84 -104l-3 7 4 -1 -1 1 -1 1 -1 1 0 2 0 2 0 2 0 2 1 3 1 3 1 3 2 3 2 3 2 3 2 4 3 4 3 4 3 4 3 4 4 4 4 4 4 4 4 4 4 4 4 4 4 4 5 4 5 3 5 3 5 3 5 3 5 3 5 3 -3 6 -5 -3 -5 -3 -5 -3 -5 -3 -5 -3 -5 -4 -5 -4 -5 -4 -4 -4 -4 -4 -4 -4 -4 -4 -4 -4 -4 -4 -3 -4 -3 -4 -3 -4 -3 -4 -3 -4 -2 -4 -2 -4 -2 -4 -2 -3 -1 -3 -1 -3 -1 -3 0 -3 0 -3 1 -3 1 -3 2 -2 2 -2 4 -1zm-4 1l2 -1 2 1 -4 1zm259 14l-5 5 4 1 -5 2 -6 2 -6 2 -7 1 -7 1 -8 1 -8 1 -8 1 -9 0 -9 0 -9 0 -9 0 -10 0 -10 0 -10 -1 -10 -1 -10 -1 -10 -1 -10 -1 -9 -1 -9 -1 -9 -1 -9 -1 -8 -1 -8 -2 -8 -2 -7 -2 -7 -2 -6 -2 -6 -2 -5 -2 -4 -2 3 -7 4 2 5 2 6 2 6 2 7 2 7 2 8 2 8 1 8 1 9 1 9 1 9 1 9 1 10 1 10 1 10 1 10 1 10 1 10 0 10 0 9 0 9 0 9 0 9 0 8 0 8 -1 8 -1 7 -1 7 -1 6 -1 5 -2 5 -2 4 1zm-4 -1l2 -1 2 2 -4 -1zm266 -9l5 -5 -1 6 -8 2 -8 3 -8 3 -9 3 -9 3 -9 3 -9 3 -9 3 -9 2 -9 2 -9 2 -9 2 -9 2 -9 2 -9 2 -9 1 -9 1 -9 1 -9 1 -9 0 -9 0 -9 0 -8 -1 -8 -1 -8 -1 -8 -2 -8 -2 -7 -3 -7 -3 -7 -4 -6 -4 -6 -5 5 -5 5 4 6 4 6 3 6 3 7 3 7 2 7 2 8 1 8 1 8 1 8 0 9 0 9 0 9 -1 9 -1 9 -1 9 -1 9 -2 9 -2 9 -2 9 -2 9 -2 9 -2 9 -2 9 -3 9 -3 9 -3 9 -3 8 -3 8 -3 8 -3 8 -2 -1 6zm5 -5l4 4 -6 2 1 -6zm-35 -48l-6 4 6 -3 1 2 1 2 1 2 1 2 1 2 1 2 1 2 1 2 1 1 1 1 1 1 1 1 1 1 1 1 1 1 1 1 1 1 1 1 1 1 1 1 1 1 1 1 1 1 1 1 1 1 1 1 1 1 2 2 2 2 2 2 2 2 2 2 -5 5 -2 -2 -2 -2 -2 -2 -2 -2 -2 -2 -2 -1 -1 -1 -1 -1 -1 -1 -1 -1 -1 -1 -1 -1 -1 -1 -1 -1 -1 -1 -1 -1 -1 -1 -1 -1 -1 -1 -1 -1 -1 -1 -1 -2 -1 -2 -1 -2 -1 -2 -1 -2 -1 -2 -1 -2 -1 -2 -1 -2 -1 -2 -1 -2 6 -3zm38 51l-5 5 0 0 -3 -3 -3 -3 -3 -3 -3 -3 -3 -3 -2 -2 -2 -2 -2 -2 -2 -2 -2 -2 -1 -2 -1 -2 -1 -2 -1 -2 -1 -2 -1 -2 -1 -2 -1 -1 -1 -1 -1 -1 -1 -1 0 -1 0 -1 0 -1 0 -1 0 -1 0 -1 0 -1 0 -1 0 -1 0 -1 0 -1 6 -4 1 1 1 1 1 1 0 1 0 1 0 1 0 1 0 1 0 1 0 1 0 1 0 1 1 1 1 1 1 1 1 1 1 1 1 1 1 2 1 2 1 2 1 2 2 2 2 2 2 2 2 2 2 2 2 2 3 3 3 3 3 3 3 3 0 0zm0 0l0 0 0 0 0 0zm217 105l-5 5 2 1 -10 -1 -10 -1 -10 -1 -9 -2 -9 -2 -9 -2 -9 -2 -8 -2 -8 -3 -8 -3 -8 -3 -7 -3 -7 -3 -7 -4 -7 -4 -7 -4 -6 -4 -6 -4 -6 -4 -6 -4 -6 -4 -6 -4 -5 -4 -5 -4 -5 -4 -5 -4 -5 -4 -5 -4 -5 -4 -5 -4 -5 -4 -5 -4 5 -5 5 4 5 4 5 4 5 4 5 4 5 4 5 4 5 4 5 4 5 4 6 4 6 4 6 4 6 4 6 4 6 4 6 4 7 4 7 3 7 3 7 3 7 3 8 3 8 3 8 2 8 2 9 2 9 2 9 1 10 1 10 1 10 1 2 1zm-2 -1l1 0 1 1 -2 -1zm287 160l6 -5 -4 6 -10 -2 -10 -3 -10 -3 -10 -3 -10 -3 -10 -4 -10 -4 -10 -4 -10 -4 -10 -5 -10 -5 -10 -5 -10 -5 -10 -5 -10 -5 -10 -5 -10 -5 -9 -6 -9 -6 -9 -6 -9 -6 -9 -6 -8 -6 -8 -6 -8 -6 -8 -6 -7 -6 -7 -6 -7 -6 -7 -5 -6 -5 -6 -5 5 -5 6 5 6 5 7 5 7 5 7 6 7 6 8 6 8 6 8 6 8 6 9 6 9 6 9 6 9 6 9 5 9 5 10 5 10 5 10 5 10 5 10 5 10 5 10 4 10 4 10 4 10 4 10 4 10 3 10 3 10 3 10 3 10 2 -4 6z"/>
    </g>
    <g>
     <polygon class="fil10" points="2908,396 2842,585 2658,585 2805,706 2732,907 2908,782 3085,922 3008,710 3155,585 2971,585 "/>
     <polygon id="1" class="fil4 str4" points="2908,396 2842,585 2658,585 2805,706 2732,907 2908,782 3085,922 3008,710 3155,585 2971,585 "/>
    </g>
    <path class="fil3" d="M2225 3009c-55,-88 -230,-183 -322,-199 46,76 58,82 64,155 -61,3 -113,3 -163,38 150,60 270,148 383,256 9,-25 12,-32 21,-57l15 -193z"/>
    <path class="fil3" d="M3565 3024c55,-88 230,-183 322,-199 -46,76 -58,82 -64,155 61,3 113,3 163,38 -150,60 -270,148 -383,256 -9,-25 -12,-32 -21,-57l-15 -193z"/>
    <g>
     <path class="fil3" d="M2151 3170c46,-76 77,-180 107,-259 304,278 978,275 1279,0 34,85 52,161 86,259 -377,287 -1095,287 -1472,0z"/>
     <path id="1" class="fil4 str5" d="M2151 3170c46,-76 77,-180 107,-259 304,278 978,275 1279,0 34,85 52,161 86,259 -377,287 -1095,287 -1472,0z"/>
    </g>
    <g>
     <path class="fil9" d="M2251 3134l27 -106 8 7 9 110 21 -84 7 6 -27 106 -8 -7 -9 -110 -21 84 -7 -6zm130 -42l8 5 -11 65c-2,11 -4,20 -7,26 -3,6 -6,10 -10,12 -4,2 -10,2 -15,-2 -6,-3 -10,-8 -13,-13 -3,-6 -5,-12 -5,-20 0,-8 0,-18 2,-29l11 -65 8 5 -11 65c-2,10 -2,17 -2,22 0,5 1,10 3,14 2,4 5,7 8,9 6,3 11,3 14,0 3,-4 6,-12 9,-26l11 -65zm14 84l8 2c0,6 0,11 1,15 1,4 3,8 5,12 3,4 6,6 9,8 3,1 6,2 9,1 3,-1 5,-2 6,-5 2,-2 3,-5 3,-9 0,-4 0,-7 0,-10 -1,-3 -2,-6 -5,-9 -2,-2 -5,-5 -10,-11 -5,-5 -9,-9 -11,-13 -3,-4 -4,-9 -5,-14 -1,-5 -1,-10 0,-15 1,-6 2,-11 5,-15 2,-4 6,-7 9,-8 4,-1 8,-1 12,1 5,2 9,5 12,10 3,4 5,10 7,16 1,6 1,13 1,19l-8 -2c1,-7 0,-13 -2,-18 -2,-5 -5,-8 -10,-10 -5,-2 -9,-2 -12,0 -3,2 -4,6 -5,11 -1,4 0,8 1,11 1,3 5,8 11,14 6,6 11,10 13,14 3,5 5,10 6,15 1,5 1,11 0,17 -1,6 -3,11 -5,16 -3,4 -6,7 -10,9 -4,1 -8,1 -13,-1 -6,-3 -10,-6 -14,-11 -3,-5 -6,-11 -7,-18 -1,-7 -2,-14 -1,-22zm57 61l36 -108 9 3 15 124 -10 -3 -4 -37 -27 -9 -10 33 -9 -3zm23 -42l22 7 -4 -34c-1,-10 -2,-19 -2,-26 -2,7 -4,14 -6,21l-10 32zm119 77l4 -103 -21 -3 1 -14 51 6 -1 14 -21 -3 -4 103 -9 -1zm48 8l5 -117 47 6 -1 14 -38 -5 -1 36 36 5 -1 14 -36 -5 -2 40 40 5 -1 14 -48 -6zm69 8l3 -117 9 1 31 95 3 -92 8 1 -3 117 -9 -1 -31 -95 -3 92 -8 -1zm107 -39l0 -14 27 1 0 44c-4,6 -9,10 -13,13 -5,3 -9,4 -14,4 -6,0 -12,-3 -17,-8 -5,-5 -9,-12 -12,-22 -3,-9 -4,-20 -4,-31 0,-11 2,-22 4,-32 3,-10 7,-17 12,-22 5,-5 11,-7 17,-7 5,0 9,2 13,5 4,3 7,7 9,12 2,5 4,11 5,19l-8 4c-1,-6 -2,-11 -3,-14 -1,-3 -3,-6 -6,-8 -3,-2 -6,-3 -9,-3 -4,0 -7,1 -10,3 -3,2 -5,5 -7,8 -2,3 -3,7 -4,11 -2,7 -3,15 -3,24 0,10 1,19 3,26 2,7 5,12 9,16 4,4 8,5 12,6 4,0 7,-1 11,-4 4,-3 6,-5 8,-8l0 -22 -19 -1zm79 0l0 -14 27 1 0 44c-4,6 -9,10 -13,13 -5,3 -9,4 -14,4 -6,0 -12,-3 -17,-8 -5,-5 -9,-12 -12,-22 -3,-9 -4,-20 -4,-31 0,-11 2,-22 4,-32 3,-10 7,-17 12,-22 5,-5 11,-7 17,-7 5,0 9,2 13,5 4,3 7,7 9,12 2,5 4,11 5,19l-8 4c-1,-6 -2,-11 -3,-14 -1,-3 -3,-6 -6,-8 -3,-2 -6,-3 -9,-3 -4,0 -7,1 -10,3 -3,2 -5,5 -7,8 -2,3 -3,7 -4,11 -2,7 -3,15 -3,24 0,10 1,19 3,26 2,7 5,12 9,16 4,4 8,5 12,6 4,0 7,-1 11,-4 4,-3 6,-5 8,-8l0 -22 -19 -1zm40 48l23 -119 9 -1 29 116 -10 1 -8 -35 -27 2 -6 36 -9 1zm18 -49l22 -1 -7 -32c-2,-10 -4,-18 -5,-24 -1,8 -2,15 -3,23l-6 35zm59 44l-5 -117 29 -4c6,-1 10,0 13,1 3,2 6,5 8,10 2,5 3,11 3,17 0,8 -1,16 -4,22 -3,6 -7,10 -13,13 2,2 4,3 5,5 3,4 5,9 8,15l12 30 -11 1 -9 -23c-3,-7 -5,-12 -7,-15 -2,-4 -3,-6 -5,-7 -1,-1 -3,-2 -4,-3 -1,0 -3,0 -5,0l-10 1 2 52 -9 1zm6 -67l18 -2c4,-1 7,-2 9,-3 2,-2 4,-4 5,-8 1,-3 1,-7 1,-11 0,-6 -1,-10 -4,-13 -2,-3 -6,-5 -11,-4l-20 3 1 39zm61 59l20 -120 9 -1 31 114 -10 1 -9 -35 -27 3 -6 36 -9 1zm17 -50l22 -3 -8 -32c-2,-10 -4,-18 -6,-24 -1,8 -1,15 -3,23l-6 35zm111 29l-9 -116 24 -6c5,-1 9,-1 12,1 3,2 6,5 8,9 2,4 3,9 4,15 0,5 0,10 -1,15 -1,5 -3,9 -6,12 4,1 7,4 10,8 2,4 4,10 4,17 0,5 0,11 -1,16 -1,5 -2,9 -4,12 -2,3 -4,6 -7,8 -3,2 -6,4 -10,5l-24 6zm3 -70l14 -4c4,-1 6,-2 8,-3 2,-2 4,-4 4,-7 1,-3 1,-7 1,-11 0,-4 -1,-7 -2,-10 -1,-3 -3,-4 -5,-5 -2,-1 -5,0 -10,1l-13 3 3 35zm4 54l16 -4c3,-1 5,-1 6,-2 2,-1 3,-3 5,-4 1,-2 2,-4 3,-7 1,-3 1,-6 1,-10 0,-4 -1,-8 -3,-11 -1,-3 -3,-5 -6,-5 -2,-1 -5,-1 -10,0l-15 4 3 40zm54 4l12 -124 9 -3 38 106 -10 3 -11 -32 -27 9 -3 37 -9 3zm13 -54l22 -8 -10 -30c-3,-9 -5,-17 -7,-22 0,8 0,16 -1,23l-3 36zm63 27l-12 -115 28 -10c6,-2 10,-2 13,-1 3,1 6,4 8,8 2,5 4,10 4,16 1,8 0,16 -2,22 -2,7 -6,12 -12,15 2,1 4,2 6,4 3,3 6,8 9,13l14 28 -10 4 -11 -21c-3,-6 -6,-11 -8,-14 -2,-3 -4,-5 -5,-6 -1,-1 -3,-2 -4,-2 -1,0 -3,0 -5,1l-10 3 5 51 -8 3zm2 -67l18 -6c4,-1 7,-3 9,-5 2,-2 3,-5 4,-9 1,-4 1,-7 1,-11 -1,-5 -2,-10 -5,-12 -3,-3 -6,-3 -11,-2l-20 7 4 38zm64 39l7 -125 9 -4 42 101 -9 5 -12 -31 -26 13 -2 38 -9 4zm11 -55l21 -10 -11 -28c-3,-9 -6,-16 -8,-22 0,8 0,16 0,24l-2 37zm69 6l-20 -97 -20 14 -3 -13 48 -33 3 13 -20 14 20 97 -8 6z"/>
     <path id="1" class="fil4 str6" d="M2251 3134l27 -106 8 7 9 110 21 -84 7 6 -27 106 -8 -7 -9 -110 -21 84 -7 -6zm130 -42l8 5 -11 65c-2,11 -4,20 -7,26 -3,6 -6,10 -10,12 -4,2 -10,2 -15,-2 -6,-3 -10,-8 -13,-13 -3,-6 -5,-12 -5,-20 0,-8 0,-18 2,-29l11 -65 8 5 -11 65c-2,10 -2,17 -2,22 0,5 1,10 3,14 2,4 5,7 8,9 6,3 11,3 14,0 3,-4 6,-12 9,-26l11 -65zm14 84l8 2c0,6 0,11 1,15 1,4 3,8 5,12 3,4 6,6 9,8 3,1 6,2 9,1 3,-1 5,-2 6,-5 2,-2 3,-5 3,-9 0,-4 0,-7 0,-10 -1,-3 -2,-6 -5,-9 -2,-2 -5,-5 -10,-11 -5,-5 -9,-9 -11,-13 -3,-4 -4,-9 -5,-14 -1,-5 -1,-10 0,-15 1,-6 2,-11 5,-15 2,-4 6,-7 9,-8 4,-1 8,-1 12,1 5,2 9,5 12,10 3,4 5,10 7,16 1,6 1,13 1,19l-8 -2c1,-7 0,-13 -2,-18 -2,-5 -5,-8 -10,-10 -5,-2 -9,-2 -12,0 -3,2 -4,6 -5,11 -1,4 0,8 1,11 1,3 5,8 11,14 6,6 11,10 13,14 3,5 5,10 6,15 1,5 1,11 0,17 -1,6 -3,11 -5,16 -3,4 -6,7 -10,9 -4,1 -8,1 -13,-1 -6,-3 -10,-6 -14,-11 -3,-5 -6,-11 -7,-18 -1,-7 -2,-14 -1,-22zm57 61l36 -108 9 3 15 124 -10 -3 -4 -37 -27 -9 -10 33 -9 -3zm23 -42l22 7 -4 -34c-1,-10 -2,-19 -2,-26 -2,7 -4,14 -6,21l-10 32zm119 77l4 -103 -21 -3 1 -14 51 6 -1 14 -21 -3 -4 103 -9 -1zm48 8l5 -117 47 6 -1 14 -38 -5 -1 36 36 5 -1 14 -36 -5 -2 40 40 5 -1 14 -48 -6zm69 8l3 -117 9 1 31 95 3 -92 8 1 -3 117 -9 -1 -31 -95 -3 92 -8 -1zm107 -39l0 -14 27 1 0 44c-4,6 -9,10 -13,13 -5,3 -9,4 -14,4 -6,0 -12,-3 -17,-8 -5,-5 -9,-12 -12,-22 -3,-9 -4,-20 -4,-31 0,-11 2,-22 4,-32 3,-10 7,-17 12,-22 5,-5 11,-7 17,-7 5,0 9,2 13,5 4,3 7,7 9,12 2,5 4,11 5,19l-8 4c-1,-6 -2,-11 -3,-14 -1,-3 -3,-6 -6,-8 -3,-2 -6,-3 -9,-3 -4,0 -7,1 -10,3 -3,2 -5,5 -7,8 -2,3 -3,7 -4,11 -2,7 -3,15 -3,24 0,10 1,19 3,26 2,7 5,12 9,16 4,4 8,5 12,6 4,0 7,-1 11,-4 4,-3 6,-5 8,-8l0 -22 -19 -1zm79 0l0 -14 27 1 0 44c-4,6 -9,10 -13,13 -5,3 -9,4 -14,4 -6,0 -12,-3 -17,-8 -5,-5 -9,-12 -12,-22 -3,-9 -4,-20 -4,-31 0,-11 2,-22 4,-32 3,-10 7,-17 12,-22 5,-5 11,-7 17,-7 5,0 9,2 13,5 4,3 7,7 9,12 2,5 4,11 5,19l-8 4c-1,-6 -2,-11 -3,-14 -1,-3 -3,-6 -6,-8 -3,-2 -6,-3 -9,-3 -4,0 -7,1 -10,3 -3,2 -5,5 -7,8 -2,3 -3,7 -4,11 -2,7 -3,15 -3,24 0,10 1,19 3,26 2,7 5,12 9,16 4,4 8,5 12,6 4,0 7,-1 11,-4 4,-3 6,-5 8,-8l0 -22 -19 -1zm40 48l23 -119 9 -1 29 116 -10 1 -8 -35 -27 2 -6 36 -9 1zm18 -49l22 -1 -7 -32c-2,-10 -4,-18 -5,-24 -1,8 -2,15 -3,23l-6 35zm59 44l-5 -117 29 -4c6,-1 10,0 13,1 3,2 6,5 8,10 2,5 3,11 3,17 0,8 -1,16 -4,22 -3,6 -7,10 -13,13 2,2 4,3 5,5 3,4 5,9 8,15l12 30 -11 1 -9 -23c-3,-7 -5,-12 -7,-15 -2,-4 -3,-6 -5,-7 -1,-1 -3,-2 -4,-3 -1,0 -3,0 -5,0l-10 1 2 52 -9 1zm6 -67l18 -2c4,-1 7,-2 9,-3 2,-2 4,-4 5,-8 1,-3 1,-7 1,-11 0,-6 -1,-10 -4,-13 -2,-3 -6,-5 -11,-4l-20 3 1 39zm61 59l20 -120 9 -1 31 114 -10 1 -9 -35 -27 3 -6 36 -9 1zm17 -50l22 -3 -8 -32c-2,-10 -4,-18 -6,-24 -1,8 -1,15 -3,23l-6 35zm111 29l-9 -116 24 -6c5,-1 9,-1 12,1 3,2 6,5 8,9 2,4 3,9 4,15 0,5 0,10 -1,15 -1,5 -3,9 -6,12 4,1 7,4 10,8 2,4 4,10 4,17 0,5 0,11 -1,16 -1,5 -2,9 -4,12 -2,3 -4,6 -7,8 -3,2 -6,4 -10,5l-24 6zm3 -70l14 -4c4,-1 6,-2 8,-3 2,-2 4,-4 4,-7 1,-3 1,-7 1,-11 0,-4 -1,-7 -2,-10 -1,-3 -3,-4 -5,-5 -2,-1 -5,0 -10,1l-13 3 3 35zm4 54l16 -4c3,-1 5,-1 6,-2 2,-1 3,-3 5,-4 1,-2 2,-4 3,-7 1,-3 1,-6 1,-10 0,-4 -1,-8 -3,-11 -1,-3 -3,-5 -6,-5 -2,-1 -5,-1 -10,0l-15 4 3 40zm54 4l12 -124 9 -3 38 106 -10 3 -11 -32 -27 9 -3 37 -9 3zm13 -54l22 -8 -10 -30c-3,-9 -5,-17 -7,-22 0,8 0,16 -1,23l-3 36zm63 27l-12 -115 28 -10c6,-2 10,-2 13,-1 3,1 6,4 8,8 2,5 4,10 4,16 1,8 0,16 -2,22 -2,7 -6,12 -12,15 2,1 4,2 6,4 3,3 6,8 9,13l14 28 -10 4 -11 -21c-3,-6 -6,-11 -8,-14 -2,-3 -4,-5 -5,-6 -1,-1 -3,-2 -4,-2 -1,0 -3,0 -5,1l-10 3 5 51 -8 3zm2 -67l18 -6c4,-1 7,-3 9,-5 2,-2 3,-5 4,-9 1,-4 1,-7 1,-11 -1,-5 -2,-10 -5,-12 -3,-3 -6,-3 -11,-2l-20 7 4 38zm64 39l7 -125 9 -4 42 101 -9 5 -12 -31 -26 13 -2 38 -9 4zm11 -55l21 -10 -11 -28c-3,-9 -6,-16 -8,-22 0,8 0,16 0,24l-2 37zm69 6l-20 -97 -20 14 -3 -13 48 -33 3 13 -20 14 20 97 -8 6z"/>
    </g>
    <path class="fil10" d="M3411 929c-6,-6 -15,-15 -22,-22 -27,-3 -61,10 -95,-7 -30,-26 -44,-56 -89,-69 43,-8 93,-26 124,-14 36,24 50,40 66,83 7,9 16,20 26,26 -4,3 -8,2 -11,2zm86 52c-5,-8 -7,-17 -11,-28 -18,-14 -44,-24 -63,-51 -16,-33 -17,-64 -43,-92 34,15 77,22 94,49 16,37 22,54 20,96 0,7 8,17 10,30 -4,-1 -3,-3 -7,-4zm104 77c-3,-9 -6,-18 -10,-29 -17,-16 -42,-31 -59,-59 -15,-37 -11,-68 -36,-101 33,19 78,31 93,59 13,40 16,59 12,102 0,7 7,18 7,32 -3,-2 -3,-4 -6,-5zm89 106c-2,-10 -3,-20 -5,-30 -15,-20 -36,-39 -49,-71 -7,-38 2,-69 -19,-104 31,24 72,44 82,75 6,40 6,61 -5,103 -1,7 3,19 1,32 -2,-2 -2,-4 -5,-5zm79 111c-1,-10 -2,-21 -2,-32 -15,-22 -34,-45 -44,-80 -2,-41 11,-72 -7,-112 29,28 71,55 76,89 3,44 0,65 -16,107 -1,7 2,21 -3,34 -2,-2 -1,-4 -4,-6zm79 121c-1,-10 0,-22 -1,-33 -13,-23 -32,-48 -40,-85 1,-43 16,-74 0,-116 29,32 70,61 74,97 -1,44 -5,67 -25,109 -1,7 0,22 -4,35 -2,-3 -1,-4 -4,-7zm59 139c0,-11 1,-24 2,-37 -10,-26 -28,-58 -30,-97 6,-46 27,-77 15,-124 26,39 66,75 66,115 -7,48 -16,71 -44,114 -1,7 -2,23 -9,37 -2,-4 -1,-4 -1,-8zm38 143c3,-11 5,-24 8,-36 -8,-27 -21,-61 -17,-100 13,-45 37,-73 33,-122 20,41 55,84 49,124 -13,47 -25,69 -58,107 -2,7 -6,22 -15,35 -1,-4 1,-4 0,-7zm22 144c4,-10 7,-23 11,-35 -4,-28 -13,-63 -6,-101 19,-44 46,-68 47,-117 15,43 46,90 35,129 -19,45 -33,65 -70,98 -2,7 -8,22 -18,33 -1,-4 1,-4 1,-7zm5 157c7,-12 11,-24 16,-37 -1,-30 -8,-65 4,-107 24,-43 57,-65 61,-116 12,48 39,100 24,138 -26,45 -41,65 -85,96 -3,7 -10,22 -22,32 -1,-4 1,-4 1,-7zm-22 165c9,-11 14,-21 22,-32 4,-31 3,-67 21,-108 31,-38 66,-55 80,-107 3,51 22,107 2,145 -32,40 -52,56 -100,81 -5,7 -14,20 -27,28 1,-4 2,-3 2,-7zm-33 162c10,-11 19,-20 27,-30 6,-34 12,-71 36,-111 37,-36 74,-47 98,-100 -5,54 8,116 -17,153 -40,38 -62,52 -115,71 -7,6 -17,18 -32,23 1,-4 2,-2 3,-6zm-58 161c13,-9 22,-17 31,-26 11,-33 21,-69 50,-105 41,-32 80,-38 109,-87 -10,51 -6,115 -35,149 -45,33 -68,43 -124,57 -7,5 -20,15 -35,18 1,-4 3,-1 3,-4zm-86 153c15,-7 24,-13 35,-19 16,-33 31,-68 66,-100 45,-27 84,-27 121,-73 -17,50 -20,118 -56,146 -50,27 -75,34 -132,38 -7,5 -22,11 -38,15 1,-6 2,-3 3,-7zm-96 149c15,-6 25,-12 37,-15 19,-33 36,-66 74,-94 47,-23 86,-19 127,-62 -22,48 -31,116 -68,141 -51,23 -77,26 -135,26 -7,4 -23,9 -40,11 2,-6 3,-3 5,-7zm-112 114c16,-4 26,-8 38,-9 25,-29 46,-59 88,-82 49,-16 87,-6 134,-41 -28,45 -48,109 -88,129 -55,13 -80,13 -137,5 -8,2 -23,5 -41,4 3,-6 4,-3 6,-6zm-77 -1901c-9,-2 -19,-2 -27,-3 -22,5 -45,22 -78,26 -35,-3 -64,-37 -101,-26 32,-21 66,-40 94,-44 39,9 56,13 89,35 7,4 20,3 30,10 -1,1 -4,-1 -6,3zm104 77c-10,-3 -20,-4 -28,-7 -23,2 -50,19 -84,20 -36,-7 -61,-46 -101,-37 34,-19 71,-37 101,-37 39,14 56,19 89,45 5,5 20,6 29,13 -1,1 -4,-1 -6,3zm90 103c-10,-4 -19,-8 -26,-10 -24,-3 -53,9 -87,3 -36,-13 -54,-56 -95,-55 37,-14 77,-23 106,-19 36,21 53,29 81,61 5,5 19,9 28,19 -2,0 -3,-2 -7,0zm78 111c-10,-5 -20,-11 -27,-14 -24,-5 -56,3 -91,-7 -37,-18 -50,-66 -92,-69 40,-10 83,-15 112,-7 37,27 53,37 78,73 6,6 20,13 29,24 -2,0 -3,-2 -8,0zm77 121c-10,-7 -20,-12 -26,-17 -24,-6 -57,-1 -94,-14 -36,-22 -46,-73 -90,-79 41,-7 85,-8 116,1 35,30 52,43 75,80 6,8 18,16 28,28 -2,0 -3,-2 -10,0zm58 138c-11,-9 -19,-15 -26,-23 -26,-9 -61,-9 -100,-28 -35,-29 -39,-85 -85,-97 45,-1 93,4 124,19 34,39 51,54 69,97 6,11 18,20 28,34 -2,0 -4,-2 -11,-2zm38 142c-8,-10 -15,-17 -22,-26 -24,-14 -60,-17 -95,-42 -31,-33 -27,-89 -71,-109 45,5 92,17 120,37 29,43 42,61 56,106 4,12 16,22 23,37 -2,0 -4,-2 -10,-3zm23 143c-7,-11 -14,-19 -20,-29 -23,-16 -57,-24 -90,-53 -27,-38 -17,-93 -58,-117 44,10 89,28 116,51 24,46 34,65 43,112 3,13 13,24 19,40 -2,-2 -4,-3 -10,-4zm5 155c-7,-12 -12,-22 -18,-32 -22,-20 -56,-31 -88,-66 -24,-41 -7,-98 -48,-127 46,15 91,38 116,66 21,51 29,71 33,122 1,14 12,27 15,44 -2,-2 -3,-4 -10,-7zm-19 166c-7,-15 -11,-25 -13,-38 -21,-22 -52,-39 -79,-79 -17,-45 8,-99 -29,-135 43,23 86,55 106,85 13,55 18,76 17,127 -2,16 6,31 7,47 -2,-2 -3,-3 -9,-6zm-32 161c-7,-16 -9,-29 -11,-41 -19,-25 -48,-47 -72,-94 -12,-49 20,-103 -13,-145 41,28 84,68 99,102 9,58 9,82 1,135 -4,17 3,34 2,51 -2,-2 -3,-5 -7,-7zm-55 160c-6,-17 -6,-29 -6,-42 -15,-27 -42,-54 -60,-103 -7,-49 32,-100 5,-145 37,32 74,77 86,114 2,58 -2,82 -15,133 -5,16 0,34 -4,51 -2,-2 -2,-5 -6,-8zm-84 153c-3,-17 -3,-30 0,-41 -11,-31 -36,-61 -46,-115 -1,-51 46,-96 24,-145 34,38 66,87 72,126 -5,60 -14,85 -35,132 -6,16 -5,35 -10,51 -3,-2 0,-5 -6,-10zm-96 149c-1,-17 1,-31 5,-41 -8,-31 -31,-64 -36,-118 4,-51 54,-92 37,-142 30,41 58,93 60,132 -10,60 -22,84 -46,128 -7,16 -9,34 -15,52 -3,-3 1,-6 -6,-11zm-111 114c1,-17 6,-30 11,-40 -4,-31 -21,-69 -17,-122 11,-50 67,-83 57,-134 23,44 43,101 40,140 -19,57 -35,79 -64,119 -11,14 -14,32 -23,49 -3,-4 2,-6 -4,-12z"/>
    <path class="fil11" d="M2651 842c14,26 4,47 -17,62 10,44 -7,69 -50,72 -24,-14 -47,-28 -73,-45 -4,-32 -5,-60 -7,-88 23,-38 51,-42 85,-14 23,-13 45,-13 62,13z"/>
    <g>
     <path class="fil12" d="M2463 951c-25,-65 23,-89 34,-131 10,20 24,41 14,58 29,1 44,12 71,8 -16,23 -13,41 -26,68 19,-1 30,21 43,39 -42,-9 -84,25 -129,-28 -8,2 -16,7 -23,14 -2,-3 -4,-6 -7,-8 7,-6 14,-13 21,-20z"/>
     <path id="1" class="fil13" d="M2496 821l3 0 -1 4 -1 4 -2 4 -2 4 -2 4 -2 4 -2 4 -2 3 -2 3 -2 3 -2 3 -2 3 -2 3 -2 3 -2 4 -2 4 -2 4 -2 4 -2 4 -1 4 -1 4 -1 4 -1 4 -1 4 0 4 0 5 0 5 1 5 1 5 1 5 2 6 2 6 -3 1 -2 -6 -2 -6 -1 -6 -1 -5 -1 -5 0 -5 0 -5 0 -5 1 -5 1 -4 1 -4 1 -4 1 -4 2 -4 2 -4 2 -4 2 -4 2 -4 2 -4 2 -3 2 -3 2 -3 2 -3 2 -3 2 -3 2 -3 2 -4 2 -4 2 -4 2 -4 1 -4 1 -4 3 0 -3 1zm0 -1l1 -4 2 4 -3 0zm16 60l-1 -2 1 -1 1 -2 1 -2 0 -2 0 -2 0 -2 0 -2 0 -2 0 -2 0 -2 0 -2 0 -2 0 -2 -1 -2 -1 -2 -1 -2 -1 -2 -1 -2 -1 -2 -1 -2 -1 -2 -1 -2 -1 -2 -1 -2 -1 -2 -1 -2 -1 -2 -1 -2 -1 -2 -1 -2 -1 -2 -1 -2 3 -1 1 2 1 2 1 2 1 2 1 2 1 2 1 2 1 2 1 2 1 2 1 2 1 2 1 2 1 2 1 2 1 2 1 2 1 2 1 2 0 2 0 2 0 2 0 2 0 2 0 2 0 2 0 2 0 2 0 2 -1 2 -1 2 -1 2 -1 -2 0 3zm0 0l-3 0 1 -2 1 2zm70 5l2 3 -3 0 -2 0 -2 0 -2 0 -2 0 -2 0 -2 0 -2 0 -2 0 -2 0 -2 0 -2 0 -2 0 -2 0 -2 0 -2 0 -2 0 -2 0 -2 0 -2 0 -2 0 -2 0 -2 0 -2 0 -2 0 -2 0 -2 0 -2 0 -2 0 -3 0 -3 0 -3 0 0 -3 3 0 3 0 3 0 2 0 2 0 2 0 2 0 2 0 2 0 2 0 2 0 2 0 2 0 2 0 2 0 2 0 2 0 2 0 2 0 2 0 2 0 2 0 2 0 2 0 2 0 2 0 2 0 2 0 2 0 2 0 2 0 2 0 2 3 -3 -2zm1 -1l4 -1 -2 3 -2 -3zm-25 71l-2 -2 1 -2 1 -2 1 -2 1 -2 1 -2 1 -2 1 -2 1 -2 1 -2 1 -2 1 -2 1 -2 1 -2 1 -2 1 -2 1 -2 1 -2 1 -2 1 -2 1 -2 1 -2 1 -2 1 -2 1 -2 1 -2 1 -2 1 -2 1 -2 1 -2 1 -2 1 -2 1 -2 3 2 -1 2 -1 2 -1 2 -1 2 -1 2 -1 2 -1 2 -1 2 -1 2 -1 2 -1 2 -1 2 -1 2 -1 2 -1 2 -1 2 -1 2 -1 2 -1 2 -1 2 -1 2 -1 2 -1 2 -1 2 -1 2 -1 2 -1 2 -1 2 -1 2 -1 2 -1 2 -1 3 -2 -2 0 3zm0 0l-3 0 1 -3 2 2zm44 36l-2 3 -1 -2 -1 -2 -1 -2 -1 -2 -1 -2 -1 -2 -1 -2 -1 -2 -1 -2 -1 -2 -1 -2 -1 -2 -1 -2 -1 -2 -1 -2 -1 -1 -1 -1 -1 -1 -1 -1 -1 -1 -1 -1 -1 -1 -1 -1 -1 -1 -1 -1 -1 -1 -1 -1 -1 0 -2 0 -2 0 -2 0 -2 0 0 -3 2 0 2 0 2 0 2 0 2 0 2 1 2 1 2 1 2 1 2 1 1 1 1 1 1 1 1 1 1 1 1 1 1 2 1 2 1 2 1 2 1 2 1 2 1 2 1 2 1 2 1 2 1 2 1 2 1 2 1 2 1 2 1 2 -2 3 1 -3zm1 1l3 3 -4 -1 2 -3zm-131 -28l2 1 4 5 4 4 4 4 4 3 4 3 4 2 4 2 4 2 4 1 4 1 4 1 4 1 4 0 4 0 4 0 4 0 4 0 4 0 4 0 4 0 4 0 4 -1 4 0 4 0 4 0 4 0 4 0 4 0 4 0 4 0 4 0 4 1 -1 3 -4 -1 -4 0 -4 0 -4 0 -4 0 -4 0 -4 0 -4 0 -4 0 -4 0 -4 1 -4 0 -4 0 -4 0 -4 0 -4 0 -4 0 -4 0 -4 0 -4 0 -4 -1 -4 -1 -4 -1 -4 -2 -4 -2 -4 -2 -4 -3 -4 -3 -4 -3 -4 -4 -4 -4 -4 -5 2 1 -1 -3zm0 0l1 0 1 1 -2 -1zm-21 15l-3 0 1 -1 1 -1 1 -1 1 -1 1 -1 1 -1 1 -1 1 -1 1 -1 1 -1 1 -1 1 -1 1 -1 1 -1 1 0 1 0 1 0 1 0 1 0 1 0 1 0 1 0 1 0 1 0 1 0 1 0 1 0 1 0 1 0 1 0 1 0 1 0 1 3 -1 0 -1 0 -1 0 -1 0 -1 0 -1 0 -1 0 -1 0 -1 0 -1 0 -1 0 -1 0 -1 0 -1 0 -1 0 -1 0 -1 0 -1 0 -1 0 -1 0 -1 1 -1 1 -1 1 -1 1 -1 1 -1 1 -1 1 -1 1 -1 1 -1 1 -1 1 -1 1 -3 0 3 -2zm0 2l-1 2 -1 -2 3 0zm-7 -8l0 -2 0 0 0 0 0 0 0 0 0 0 0 0 0 0 0 0 0 0 0 0 0 0 0 0 0 0 0 0 0 0 0 0 0 0 0 0 0 0 0 0 0 0 0 0 0 0 0 0 0 0 0 0 0 0 0 0 0 0 0 0 0 0 0 0 -3 2 0 0 0 0 0 0 0 0 0 0 0 0 0 0 0 0 0 0 0 0 0 0 0 0 0 0 0 0 0 0 0 0 0 0 0 0 0 0 0 0 0 0 0 0 0 0 0 0 0 0 0 0 0 0 0 0 0 0 0 0 0 0 0 0 0 -2 2 2zm-2 0l-1 -1 1 -1 0 2zm24 -22l0 2 -1 1 -1 1 -1 1 -1 1 -1 1 -1 1 -1 1 -1 1 -1 1 -1 1 -1 1 -1 1 -1 1 -1 1 -1 1 -1 1 -1 1 -1 1 -1 1 -1 1 -1 1 -1 1 -1 1 -1 1 -1 1 -1 1 -1 1 -1 1 -1 1 -1 1 -1 1 -1 1 -2 -2 1 -1 1 -1 1 -1 1 -1 1 -1 1 -1 1 -1 1 -1 1 -1 1 -1 1 -1 1 -1 1 -1 1 -1 1 -1 1 -1 1 -1 1 -1 1 -1 1 -1 1 -1 1 -1 1 -1 1 -1 1 -1 1 -1 1 -1 1 -1 1 -1 1 -1 1 -1 1 -1 0 2 3 -1zm0 0l0 1 -1 1 0 -2z"/>
    </g>
    <path class="fil11" d="M2508 927c18,28 8,51 -14,70 14,48 -2,76 -50,84 -27,-13 -54,-27 -84,-44 -7,-35 -11,-66 -15,-96 22,-44 53,-51 93,-23 24,-16 49,-18 69,9z"/>
    <g>
     <path class="fil12" d="M2309 1064c-34,-70 18,-100 27,-148 12,21 30,43 21,62 32,-2 49,9 79,2 -16,26 -11,47 -23,77 21,-3 35,21 51,39 -47,-6 -91,35 -145,-19 -9,3 -17,9 -24,18 -2,-3 -5,-6 -8,-9 8,-8 15,-16 21,-24z"/>
     <path id="1" class="fil13" d="M2335 917l3 -1 -1 5 -1 4 -1 4 -2 4 -2 4 -2 4 -2 4 -2 4 -2 4 -2 4 -2 4 -2 4 -2 4 -2 4 -2 4 -2 4 -2 4 -2 4 -1 4 -1 4 -1 4 -1 5 -1 5 0 5 0 5 0 5 1 5 1 6 2 6 2 6 2 6 3 6 -3 1 -3 -7 -2 -6 -2 -6 -2 -6 -1 -6 -1 -6 0 -5 0 -5 0 -5 1 -5 1 -5 1 -5 1 -5 1 -4 2 -4 2 -4 2 -4 2 -4 2 -4 2 -4 2 -4 2 -4 2 -4 2 -4 2 -4 2 -4 2 -4 2 -4 2 -4 1 -4 1 -4 1 -4 3 -1 -3 2zm0 -1l1 -4 2 4 -3 1zm22 64l-2 -2 1 -2 1 -2 0 -2 0 -2 0 -2 0 -2 0 -2 0 -2 0 -2 0 -2 0 -2 -1 -2 -1 -2 -1 -2 -1 -2 -1 -2 -1 -2 -1 -2 -1 -2 -1 -2 -1 -2 -1 -2 -1 -2 -1 -2 -1 -2 -1 -2 -1 -2 -1 -2 -1 -2 -1 -2 -1 -2 -1 -2 3 -2 1 2 1 2 1 2 1 2 1 2 1 2 1 2 1 2 1 2 1 2 1 2 1 2 1 2 1 2 1 2 1 2 1 2 1 2 1 2 1 2 1 2 0 2 0 2 0 2 0 2 0 2 0 2 0 2 0 2 -1 2 -1 2 -1 2 -2 -2 0 3zm0 0l-3 0 1 -3 2 2zm78 0l2 2 -3 1 -3 1 -3 0 -3 0 -3 0 -3 0 -2 0 -2 0 -2 0 -2 0 -2 0 -2 0 -2 0 -2 0 -2 0 -2 0 -2 0 -2 0 -2 0 -2 0 -2 0 -2 0 -2 0 -2 0 -2 0 -3 0 -3 0 -3 0 -3 0 -3 0 -3 0 -3 0 0 -3 3 0 3 0 3 0 3 0 3 0 3 0 3 0 3 0 2 0 2 0 2 0 2 0 2 0 2 0 2 0 2 0 2 0 2 0 2 0 2 0 2 0 2 0 2 0 2 0 2 0 2 0 2 0 2 0 3 0 3 0 3 0 3 -1 2 2 -3 -2zm1 -1l4 -1 -2 3 -2 -2zm-22 81l-2 -2 1 -3 1 -3 1 -3 1 -3 1 -3 1 -3 1 -3 1 -2 1 -2 0 -2 0 -2 0 -2 0 -2 0 -2 0 -2 0 -2 0 -2 0 -2 0 -2 1 -2 1 -2 1 -2 1 -2 1 -2 1 -2 1 -2 1 -2 1 -2 1 -2 1 -2 1 -2 1 -2 3 2 -1 2 -1 2 -1 2 -1 2 -1 2 -1 2 -1 2 -1 2 -1 2 -1 2 -1 2 -1 2 0 2 0 2 0 2 0 2 0 2 0 2 0 2 0 2 0 2 0 2 0 2 -1 2 -1 3 -1 3 -1 3 -1 3 -1 3 -1 3 -1 3 -1 3 -2 -2 1 3zm0 0l-3 0 1 -3 2 2zm51 36l-1 3 -2 -2 -1 -2 -1 -2 -1 -2 -1 -2 -1 -2 -1 -2 -1 -2 -1 -2 -1 -2 -1 -2 -1 -2 -1 -2 -1 -2 -1 -2 -1 -1 -2 -1 -2 -1 -2 -1 -2 -1 -2 -1 -2 -1 -2 -1 -2 -1 -2 -1 -2 -1 -2 0 -2 0 -2 0 -2 0 -2 0 -2 0 -1 -3 2 0 2 0 2 0 2 0 2 0 2 1 2 1 2 1 2 1 2 1 2 1 2 1 2 1 2 1 2 1 2 1 2 2 2 2 2 2 2 2 1 2 1 2 1 2 1 2 1 2 1 2 1 2 1 2 1 2 1 2 1 2 1 2 -1 3 0 -3zm1 1l3 3 -4 -1 1 -3zm-147 -20l2 0 5 5 5 4 5 4 5 3 5 3 5 2 5 2 5 2 5 1 5 1 4 1 4 0 4 0 4 0 4 0 4 0 4 -1 4 -1 4 -1 4 -1 4 -1 4 -1 4 -1 4 -1 4 -1 4 -1 4 -1 4 0 4 0 4 0 4 0 5 0 0 3 -4 0 -4 0 -4 0 -4 0 -4 0 -4 1 -4 1 -4 1 -4 1 -4 1 -4 1 -4 1 -4 1 -4 1 -4 1 -4 1 -4 0 -5 0 -5 0 -5 0 -5 0 -5 -1 -5 -1 -5 -1 -5 -2 -5 -2 -5 -2 -5 -3 -5 -3 -5 -4 -5 -4 -5 -5 2 0 -1 -3zm0 0l1 0 1 1 -2 0zm-22 18l-3 0 1 -1 1 -1 1 -1 1 -1 1 -1 1 -1 1 -1 1 -1 1 -1 1 -1 1 -1 1 -1 1 -1 1 -1 1 -1 1 -1 1 -1 1 -1 1 -1 1 -1 1 0 1 0 1 0 1 0 1 0 1 0 1 0 1 0 1 0 1 0 1 0 1 0 1 3 -1 0 -1 0 -1 0 -1 0 -1 0 -1 0 -1 0 -1 0 -1 0 -1 0 -1 0 -1 0 -1 0 -1 0 -1 1 -1 1 -1 1 -1 1 -1 1 -1 1 -1 1 -1 1 -1 1 -1 1 -1 1 -1 1 -1 1 -1 1 -1 1 -1 1 -1 1 -1 1 -3 0 3 -2zm0 2l-1 2 -1 -2 3 0zm-8 -8l0 -2 0 0 0 0 0 0 0 0 0 0 0 0 0 0 0 0 0 0 0 0 0 0 0 0 0 0 0 0 0 0 0 0 0 0 0 0 0 0 0 0 0 0 0 0 0 0 0 0 0 0 0 0 0 0 0 0 0 0 0 0 0 0 0 0 -3 2 0 0 0 0 0 0 0 0 0 0 0 0 0 0 0 0 0 0 0 0 0 0 0 0 0 0 0 0 0 0 0 0 0 0 0 0 0 0 0 0 0 0 0 0 0 0 0 0 0 0 0 0 0 0 0 0 0 0 0 0 0 0 0 0 0 -2 2 2zm-2 0l-1 -1 1 -1 0 2zm24 -26l0 2 -1 1 -1 1 -1 1 -1 1 -1 1 -1 1 -1 1 -1 1 -1 1 -1 1 -1 1 -1 1 -1 1 -1 1 -1 1 -1 1 -1 1 -1 1 -1 1 -1 1 -1 1 -1 1 -1 1 -1 1 -1 1 -1 1 -1 1 -1 1 -1 1 -1 1 -1 1 -1 1 -2 -2 1 -1 1 -1 1 -1 1 -1 1 -1 1 -1 1 -1 1 -1 1 -1 1 -1 1 -1 1 -1 1 -1 1 -1 1 -1 1 -1 1 -1 1 -1 1 -1 1 -1 1 -1 1 -1 1 -1 1 -1 1 -1 1 -1 1 -1 1 -1 1 -1 1 -1 1 -1 1 -1 0 2 3 -1zm0 0l0 1 -1 1 0 -2z"/>
    </g>
    <path class="fil11" d="M2333 1035c22,27 15,52 -5,75 21,48 8,80 -41,95 -30,-10 -60,-20 -93,-34 -12,-36 -20,-67 -28,-98 17,-49 49,-61 94,-37 23,-20 48,-26 74,-1z"/>
    <g>
     <path class="fil12" d="M2144 1206c-44,-68 6,-107 9,-158 16,21 37,40 30,62 33,-7 53,3 83,-9 -13,30 -5,50 -14,84 21,-6 39,17 59,34 -50,0 -90,49 -154,0 -9,4 -17,12 -22,22 -3,-3 -6,-5 -9,-8 7,-9 13,-19 19,-28z"/>
     <path id="1" class="fil13" d="M2151 1049l3 -1 0 5 -1 5 -1 5 -1 5 -1 5 -1 5 -2 5 -2 4 -2 4 -2 4 -2 4 -2 4 -2 4 -2 4 -2 5 -1 5 -1 5 -1 5 -1 5 -1 5 0 5 0 5 0 5 0 5 1 5 1 5 1 5 2 6 2 6 3 6 3 6 4 6 -3 2 -4 -6 -3 -6 -3 -6 -2 -6 -2 -6 -2 -6 -1 -6 -1 -5 0 -5 0 -5 0 -5 0 -5 1 -5 1 -5 1 -5 1 -5 1 -5 2 -5 2 -5 2 -4 2 -4 2 -4 2 -4 2 -4 2 -4 2 -4 1 -4 1 -4 1 -5 1 -5 1 -5 0 -5 3 -1 -3 2zm0 -1l0 -4 3 4 -3 1zm32 64l-2 -2 1 -2 0 -2 0 -2 0 -2 0 -2 0 -2 0 -2 0 -2 0 -2 -1 -2 -1 -2 -1 -2 -1 -2 -1 -2 -1 -2 -1 -2 -1 -2 -1 -2 -1 -2 -1 -2 -1 -2 -1 -2 -1 -2 -2 -2 -2 -2 -2 -2 -2 -2 -2 -2 -2 -2 -2 -2 -2 -2 -2 -2 3 -2 1 2 2 2 2 2 2 2 2 2 2 2 2 2 2 2 2 2 2 2 1 2 1 2 1 2 1 2 1 2 1 2 1 2 1 2 1 2 1 2 1 2 1 2 1 2 1 2 0 2 0 2 0 2 0 2 0 2 0 2 0 2 -1 2 -2 -2 1 3zm0 0l-3 1 1 -3 2 2zm81 -11l2 2 -3 1 -3 1 -3 1 -3 1 -3 1 -3 1 -3 0 -3 0 -2 0 -2 0 -2 0 -2 0 -2 0 -2 0 -2 0 -2 0 -2 0 -2 0 -2 0 -2 0 -2 0 -2 0 -3 0 -3 0 -3 0 -3 0 -3 0 -3 0 -3 0 -3 0 -3 0 -3 1 -1 -3 3 -1 3 0 3 0 3 0 3 0 3 0 3 0 3 0 3 0 3 0 3 0 2 0 2 0 2 0 2 0 2 0 2 0 2 0 2 0 2 0 2 0 2 0 2 0 2 0 2 0 2 0 2 0 3 -1 3 -1 3 -1 3 -1 3 -1 2 2 -3 -1zm1 -1l4 -1 -2 4 -2 -2zm-12 87l-2 -2 1 -3 1 -3 1 -3 0 -3 0 -3 0 -3 0 -3 0 -3 0 -3 0 -3 0 -3 0 -3 0 -3 0 -2 0 -2 0 -2 0 -2 0 -2 0 -2 0 -2 0 -2 0 -2 0 -2 0 -3 1 -3 1 -3 1 -3 1 -3 1 -3 1 -3 1 -3 1 -3 3 1 -1 3 -1 3 -1 3 -1 3 -1 3 -1 3 -1 2 0 2 0 2 0 2 0 2 0 2 0 2 0 2 0 2 0 2 0 2 0 2 0 2 0 3 0 3 0 3 0 3 0 3 0 3 0 3 0 3 0 3 0 3 -1 3 -1 3 -1 3 -2 -2 1 3zm0 0l-3 1 1 -3 2 2zm58 31l-1 3 -2 -2 -2 -2 -2 -2 -2 -2 -2 -2 -2 -2 -2 -2 -2 -2 -2 -2 -2 -2 -2 -2 -2 -2 -2 -2 -2 -1 -2 -1 -2 -1 -2 -1 -2 -1 -2 -1 -2 -1 -2 -1 -2 -1 -2 -1 -2 -1 -2 0 -2 0 -2 0 -2 0 -2 0 -2 0 -2 0 -2 0 -1 -3 2 -1 2 0 2 0 2 0 2 0 2 0 2 0 2 1 2 1 2 1 2 1 2 1 2 1 2 1 2 1 2 1 2 1 2 1 2 2 2 2 2 2 2 2 2 2 2 2 2 2 2 2 2 2 2 2 2 2 2 2 2 2 2 2 -1 3 0 -3zm1 0l3 3 -4 0 1 -3zm-156 0l2 0 6 4 6 4 6 3 5 3 5 2 5 2 5 1 5 1 5 1 5 0 5 0 5 0 5 0 5 -1 5 -1 5 -1 4 -1 4 -1 4 -1 4 -1 4 -2 4 -2 4 -2 4 -1 4 -1 4 -1 5 -1 5 -1 5 -1 5 -1 5 0 5 0 0 3 -5 0 -5 0 -4 1 -4 1 -4 1 -4 1 -4 1 -4 1 -4 1 -4 2 -4 2 -4 2 -4 2 -4 1 -5 1 -5 1 -5 1 -5 1 -5 1 -5 0 -5 0 -5 0 -5 0 -5 -1 -5 -1 -5 -1 -5 -2 -6 -2 -6 -3 -6 -3 -6 -4 -6 -4 2 0 -1 -3zm0 0l1 0 1 1 -2 0zm-21 22l-3 0 1 -1 1 -1 1 -1 1 -1 1 -1 1 -1 1 -1 1 -1 1 -1 1 -1 1 -1 1 -1 1 -1 1 -1 1 -1 1 -1 1 -1 1 -1 1 -1 1 -1 1 -1 1 -1 1 -1 1 -1 1 -1 1 -1 1 -1 1 -1 1 0 1 0 1 0 1 0 1 3 -1 0 -1 0 -1 0 -1 0 -1 0 -1 0 -1 1 -1 1 -1 1 -1 1 -1 1 -1 1 -1 1 -1 1 -1 1 -1 1 -1 1 -1 1 -1 1 -1 1 -1 1 -1 1 -1 1 -1 1 -1 1 -1 1 -1 1 -1 1 -1 1 -1 1 -1 1 -1 1 -3 0 2 -2zm0 2l-1 2 -2 -2 3 0zm-9 -8l0 -2 0 0 0 0 0 0 0 0 0 0 0 0 0 0 0 0 0 0 0 0 0 0 0 0 0 0 0 0 0 0 0 0 0 0 0 0 0 0 0 0 0 0 0 0 0 0 0 0 0 0 0 0 0 0 0 0 0 0 0 0 0 0 0 0 -2 2 0 0 0 0 0 0 0 0 0 0 0 0 0 0 0 0 0 0 0 0 0 0 0 0 0 0 0 0 0 0 0 0 0 0 0 0 0 0 0 0 0 0 0 0 0 0 0 0 0 0 0 0 0 0 0 0 0 0 0 0 0 0 0 0 0 -2 3 2zm-2 0l-1 -1 1 -1 0 2zm22 -30l0 2 -1 1 -1 1 -1 1 -1 1 -1 1 -1 1 -1 1 -1 1 -1 1 -1 1 -1 1 -1 1 -1 1 -1 1 -1 1 -1 1 -1 1 -1 1 -1 1 -1 1 -1 1 -1 1 -1 1 -1 1 -1 1 -1 1 -1 1 -1 1 -1 1 -1 1 -1 1 -1 1 -3 -2 1 -1 1 -1 1 -1 1 -1 1 -1 1 -1 1 -1 1 -1 1 -1 1 -1 1 -1 1 -1 1 -1 1 -1 1 -1 1 -1 1 -1 1 -1 1 -1 1 -1 1 -1 1 -1 1 -1 1 -1 1 -1 1 -1 1 -1 1 -1 1 -1 1 -1 1 -1 1 -1 0 2 3 -2zm0 0l1 1 -1 1 0 -2z"/>
    </g>
    <path class="fil11" d="M2177 1166c27,24 24,51 6,78 29,46 20,81 -28,104 -32,-6 -65,-11 -101,-20 -18,-35 -31,-66 -44,-97 10,-53 41,-70 91,-53 21,-24 46,-34 75,-13z"/>
    <g>
     <path class="fil12" d="M2008 1372c-56,-63 -10,-111 -15,-164 19,19 44,36 40,59 33,-12 55,-6 84,-22 -9,33 2,52 -1,88 21,-10 43,11 65,26 -51,8 -85,65 -158,25 -9,6 -15,15 -20,26 -3,-3 -7,-5 -11,-7 6,-10 11,-21 16,-32z"/>
     <path id="1" class="fil13" d="M1992 1209l3 -1 0 5 0 5 0 5 0 5 -1 5 -1 5 -1 5 -1 5 -1 5 -1 5 -1 5 -1 5 -1 5 -1 5 -1 5 -1 5 -1 5 0 5 0 5 0 5 0 5 1 5 1 5 1 5 2 5 2 5 2 5 3 5 3 6 4 6 4 6 5 6 -2 2 -5 -6 -4 -6 -4 -6 -3 -6 -3 -6 -2 -6 -2 -6 -2 -5 -1 -5 -1 -5 -1 -5 0 -5 0 -5 0 -5 0 -5 1 -5 1 -5 1 -5 1 -5 1 -5 1 -5 1 -5 1 -5 1 -5 1 -5 1 -5 1 -5 1 -5 0 -5 0 -5 0 -5 0 -5 3 -1 -2 2zm0 -1l0 -4 3 3 -3 1zm42 60l-2 -2 0 -2 0 -2 0 -2 0 -2 0 -2 0 -2 -1 -2 -1 -2 -1 -2 -1 -2 -1 -2 -1 -2 -1 -2 -1 -2 -1 -2 -1 -2 -2 -2 -2 -2 -2 -2 -2 -2 -2 -2 -2 -2 -2 -2 -2 -2 -2 -2 -2 -2 -2 -2 -2 -2 -2 -2 -2 -2 -2 -2 -2 -2 2 -2 2 2 2 2 2 2 2 2 2 2 2 2 2 2 2 2 2 2 2 2 2 2 2 2 2 2 2 2 2 2 2 2 2 2 1 2 1 2 1 2 1 2 1 2 1 2 1 2 1 2 1 2 0 2 0 2 0 2 0 2 0 2 0 2 -2 -2 1 3zm0 0l-3 1 1 -3 2 2zm82 -24l2 2 -3 1 -3 1 -3 1 -3 1 -3 1 -3 1 -3 1 -3 1 -3 1 -2 1 -2 1 -2 1 -2 0 -2 0 -2 0 -2 0 -2 0 -2 0 -2 0 -3 0 -3 0 -3 0 -3 0 -3 0 -3 1 -3 1 -3 1 -3 1 -3 1 -3 1 -3 1 -3 1 -1 -3 3 -1 3 -1 3 -1 3 -1 3 -1 3 -1 3 -1 3 -1 3 0 3 0 3 0 3 0 3 0 3 0 2 0 2 0 2 0 2 0 2 0 2 0 2 0 2 -1 2 -1 2 -1 2 -1 2 -1 2 -1 3 -1 3 -1 3 -1 3 -1 3 -1 2 2 -3 -1zm1 -1l3 -2 -1 4 -2 -2zm0 91l-2 -2 0 -3 0 -3 0 -3 0 -3 0 -3 0 -3 0 -3 0 -3 0 -3 0 -3 0 -3 0 -3 0 -3 0 -3 0 -3 0 -3 0 -3 0 -3 0 -3 0 -3 0 -3 0 -3 0 -3 0 -3 0 -3 0 -3 0 -3 0 -3 0 -3 1 -3 1 -3 1 -3 3 1 -1 3 -1 3 -1 3 0 3 0 3 0 3 0 3 0 3 0 3 0 3 0 3 0 3 0 3 0 3 0 3 0 3 0 3 0 3 0 3 0 3 0 3 0 3 0 3 0 3 0 3 0 3 0 3 0 3 0 3 0 3 0 3 0 3 -2 -2 1 3zm0 0l-3 1 0 -3 2 2zm64 22l-1 3 -2 -1 -2 -1 -2 -1 -2 -1 -2 -1 -2 -1 -2 -1 -2 -1 -2 -1 -2 -1 -2 -1 -2 -1 -2 -1 -2 -1 -2 -1 -2 -1 -2 -1 -2 -1 -2 -1 -2 -1 -2 -1 -2 -1 -2 0 -2 0 -2 0 -2 0 -2 0 -2 0 -2 0 -2 0 -2 1 -2 1 -1 -3 2 -1 2 -1 2 -1 2 0 2 0 2 0 2 0 2 0 2 0 2 0 2 1 2 1 2 1 2 1 2 1 2 1 2 1 2 1 2 1 2 1 2 1 2 1 2 1 2 1 2 1 2 1 2 1 2 1 2 1 2 1 2 1 2 1 -1 3 -1 -3zm1 0l4 2 -4 1 1 -3zm-160 25l2 0 7 3 6 3 6 2 6 2 6 1 6 1 5 1 5 0 5 0 5 0 5 -1 5 -1 5 -1 5 -1 5 -2 4 -2 4 -2 4 -2 4 -2 4 -2 4 -2 4 -2 4 -2 4 -2 4 -2 4 -2 4 -2 5 -2 5 -2 5 -1 5 -1 5 -1 1 3 -5 1 -5 1 -5 1 -4 2 -4 2 -4 2 -4 2 -4 2 -4 2 -4 2 -4 2 -4 2 -4 2 -4 2 -4 2 -5 2 -5 2 -5 2 -5 1 -5 1 -5 1 -5 1 -5 0 -5 0 -6 0 -6 -1 -6 -1 -6 -2 -6 -2 -6 -2 -7 -3 -7 -4 2 0 -2 -3zm0 0l1 -1 1 0 -2 0zm-18 26l-3 1 0 -1 0 -1 0 -1 0 -1 0 -1 1 -1 1 -1 1 -1 1 -1 1 -1 1 -1 1 -1 1 -1 1 -1 1 -1 1 -1 1 -1 1 -1 1 -1 1 -1 1 -1 1 -1 1 -1 1 -1 1 -1 1 -1 1 -1 1 -1 1 -1 1 -1 1 -1 1 -1 2 3 -1 1 -1 1 -1 1 -1 1 -1 1 -1 1 -1 1 -1 1 -1 1 -1 1 -1 1 -1 1 -1 1 -1 1 -1 1 -1 1 -1 1 -1 1 -1 1 -1 1 -1 1 -1 1 -1 1 -1 1 0 1 0 1 0 1 0 1 0 1 0 1 0 1 0 1 -3 1 2 -3zm0 2l-1 2 -2 -1 3 -1zm-11 -6l-1 -2 0 0 0 0 0 0 0 0 0 0 0 0 0 0 0 0 0 0 0 0 0 0 0 0 0 0 0 0 0 0 0 0 0 0 0 0 0 0 0 0 0 0 0 0 0 0 0 0 0 0 0 0 0 0 0 0 0 0 0 0 0 0 0 0 -2 3 0 0 0 0 0 0 0 0 0 0 0 0 0 0 0 0 0 0 0 0 0 0 0 0 0 0 0 0 0 0 0 0 0 0 0 0 0 0 0 0 0 0 0 0 0 0 0 0 0 0 0 0 0 0 0 0 0 0 0 0 0 0 0 0 -1 -2 3 2zm-2 1l-2 -1 1 -1 1 2zm18 -34l0 2 0 1 0 1 0 1 0 1 0 1 0 1 0 1 0 1 0 1 0 1 0 1 0 1 0 1 0 1 0 1 0 1 0 1 0 1 -1 1 -1 1 -1 1 -1 1 -1 1 -1 1 -1 1 -1 1 -1 1 -1 1 -1 1 -1 1 -1 1 -1 1 -3 -2 1 -1 1 -1 1 -1 1 -1 1 -1 1 -1 1 -1 1 -1 1 -1 1 -1 1 -1 0 -1 1 -1 0 -1 0 -1 0 -1 0 -1 0 -1 0 -1 0 -1 0 -1 0 -1 0 -1 0 -1 0 -1 0 -1 0 -1 0 -1 0 -1 0 -1 0 -1 0 -1 0 2 2 -2zm0 0l1 1 0 1 0 -2z"/>
    </g>
    <path class="fil11" d="M2050 1326c33,20 35,50 21,81 39,43 37,81 -10,115 -35,1 -71,1 -111,-1 -25,-33 -45,-63 -65,-93 1,-58 30,-83 87,-74 17,-30 42,-45 77,-28z"/>
    <g>
     <path class="fil12" d="M1910 1577c-71,-56 -32,-115 -47,-170 24,16 53,29 53,54 33,-19 57,-17 84,-40 -3,36 12,55 15,94 20,-15 48,3 74,14 -53,19 -78,86 -162,58 -8,8 -13,19 -16,32 -4,-2 -8,-3 -13,-5 4,-12 8,-25 11,-37z"/>
     <path id="1" class="fil13" d="M1863 1409l3 -2 1 5 1 5 1 5 0 5 0 5 0 5 0 5 0 5 0 5 0 5 0 5 0 5 0 5 0 5 0 5 0 5 0 5 0 5 1 5 1 5 1 5 2 5 2 5 2 5 3 5 3 5 3 5 4 5 5 5 5 5 6 5 6 5 -2 3 -6 -5 -6 -5 -5 -5 -5 -5 -4 -5 -4 -5 -3 -5 -3 -5 -2 -5 -2 -5 -2 -5 -1 -5 -1 -5 -1 -5 0 -5 0 -5 0 -5 0 -5 0 -5 0 -5 0 -5 0 -5 0 -5 0 -5 0 -5 0 -5 0 -5 0 -5 0 -5 -1 -5 -1 -5 -1 -5 3 -2 -2 3zm55 54l-2 -1 0 -2 0 -2 0 -2 -1 -2 -1 -2 -1 -2 -1 -2 -1 -2 -1 -2 -1 -2 -1 -2 -2 -2 -2 -2 -2 -2 -2 -2 -2 -2 -2 -2 -2 -2 -2 -1 -2 -1 -2 -1 -2 -1 -2 -1 -2 -1 -2 -1 -2 -1 -2 -1 -2 -1 -2 -1 -2 -1 -2 -1 -2 -2 2 -3 2 1 2 1 2 1 2 1 2 1 2 1 2 1 2 1 2 1 2 1 2 1 2 1 2 2 2 2 2 2 2 2 2 2 2 2 2 2 2 2 2 2 2 2 1 2 1 2 1 2 1 2 1 2 1 2 1 2 0 2 0 2 0 2 -2 -1 2 3zm0 0l-2 1 0 -3 2 1zm82 -42l3 1 -3 2 -3 2 -3 2 -3 2 -3 2 -3 2 -3 1 -3 1 -3 1 -3 1 -3 1 -3 1 -3 1 -3 1 -3 1 -3 1 -3 1 -3 1 -3 1 -3 1 -3 1 -3 1 -3 1 -3 1 -3 1 -3 1 -3 1 -3 1 -3 1 -3 2 -3 2 -3 2 -2 -3 3 -2 3 -2 3 -2 3 -1 3 -1 3 -1 3 -1 3 -1 3 -1 3 -1 3 -1 3 -1 3 -1 3 -1 3 -1 3 -1 3 -1 3 -1 2 -1 2 -1 2 -1 2 -1 2 -1 2 -1 2 -1 2 -1 2 -1 2 -2 2 -2 3 -2 3 -2 3 -2 3 1 -3 0zm1 -1l3 -3 0 4 -3 -1zm17 96l-3 -1 0 -4 0 -3 0 -3 -1 -3 -1 -3 -1 -3 -1 -3 -1 -3 -1 -3 -1 -3 -1 -3 -1 -3 -1 -3 -1 -3 -1 -3 -1 -3 -1 -3 -1 -3 -1 -3 -1 -3 -1 -3 -1 -3 0 -3 0 -3 0 -3 0 -3 0 -3 0 -3 0 -3 0 -3 0 -3 0 -3 3 0 0 3 0 3 0 3 0 3 0 3 0 3 0 3 0 3 0 3 0 3 1 3 1 3 1 3 1 3 1 3 1 3 1 3 1 3 1 3 1 3 1 3 1 3 1 3 1 3 1 3 1 3 1 3 1 3 1 3 0 3 0 4 0 4 -3 -1 2 3zm0 0l-2 2 0 -3 3 1zm72 11l0 3 -2 -1 -2 -1 -2 -1 -2 -1 -2 -1 -2 -1 -2 -1 -2 -1 -2 -1 -2 -1 -2 -1 -2 -1 -2 -1 -2 -1 -2 -1 -2 -1 -2 -1 -2 -1 -2 -1 -2 0 -2 0 -2 0 -2 0 -2 0 -2 0 -2 0 -2 0 -2 1 -2 1 -2 1 -2 1 -2 1 -2 -3 2 -1 2 -1 2 -1 2 -1 2 -1 2 0 2 0 2 0 2 0 2 0 2 0 2 0 2 0 2 1 2 1 2 1 2 1 2 1 2 1 2 1 2 1 2 1 2 1 2 1 2 1 2 1 2 1 2 1 2 1 2 1 2 1 2 1 0 3 -1 -3zm1 0l4 2 -4 1 0 -3zm-164 58l2 0 8 2 7 2 7 1 7 1 6 0 6 0 6 0 6 -1 5 -1 5 -1 5 -2 5 -2 5 -2 5 -2 4 -3 4 -3 4 -3 4 -3 4 -3 4 -3 4 -3 4 -3 4 -3 4 -3 4 -3 4 -3 4 -3 4 -3 5 -3 5 -2 5 -2 5 -2 1 3 -5 2 -5 2 -5 2 -4 3 -4 3 -4 3 -4 3 -4 3 -4 3 -4 3 -4 3 -4 3 -4 3 -4 3 -4 3 -4 3 -4 3 -5 3 -5 3 -5 2 -5 2 -5 2 -5 1 -6 1 -6 1 -6 0 -6 0 -7 0 -7 -1 -7 -1 -8 -2 -8 -2 2 0 -2 -2zm0 0l1 -1 1 0 -2 0zm-14 31l-2 1 0 -1 0 -1 0 -1 0 -1 0 -1 0 -1 0 -1 0 -1 0 -1 0 -1 0 -1 0 -1 0 -1 0 -1 0 -1 1 -1 1 -1 1 -1 1 -1 1 -1 1 -1 1 -1 1 -1 1 -1 1 -1 1 -1 1 -1 1 -1 1 -1 1 -1 1 -1 1 -1 2 2 -1 1 -1 1 -1 1 -1 1 -1 1 -1 1 -1 1 -1 1 -1 1 -1 1 -1 1 -1 1 -1 1 -1 1 -1 1 0 1 0 1 0 1 0 1 0 1 0 1 0 1 0 1 0 1 0 1 0 1 0 1 0 1 0 1 0 1 0 1 0 1 -2 1 2 -3zm1 2l0 2 -2 -1 2 -1zm-13 -5l-1 -2 0 0 0 0 0 0 0 0 0 0 0 0 0 0 0 0 0 0 0 0 0 0 0 0 0 0 0 0 0 0 0 0 0 0 0 0 0 0 0 0 0 0 0 0 0 0 0 0 0 0 0 0 0 0 0 0 0 0 0 0 0 0 0 0 -2 3 0 0 0 0 0 0 0 0 0 0 0 0 0 0 0 0 0 0 0 0 0 0 0 0 0 0 0 0 0 0 0 0 0 0 0 0 0 0 0 0 0 0 0 0 0 0 0 0 0 0 0 0 0 0 0 0 0 0 0 0 0 0 0 0 -1 -2 3 1zm-2 1l-2 0 1 -2 1 2zm12 -39l1 2 0 1 0 1 0 1 0 1 0 1 0 1 0 1 0 1 0 1 0 1 0 1 0 1 0 1 0 1 0 1 0 1 0 1 0 1 0 1 0 1 0 1 0 1 0 1 0 1 0 1 0 1 0 1 0 1 0 1 0 1 0 1 0 1 -3 -1 0 -1 0 -1 0 -1 0 -1 0 -1 0 -1 0 -1 0 -1 0 -1 0 -1 0 -1 0 -1 0 -1 0 -1 0 -1 0 -1 0 -1 0 -1 0 -1 0 -1 0 -1 0 -1 0 -1 0 -1 0 -1 0 -1 0 -1 0 -1 0 -1 0 -1 0 -1 0 -1 1 2 2 -3zm0 0l1 1 0 1 -1 -2z"/>
    </g>
    <path class="fil11" d="M1950 1518c37,11 45,40 39,74 48,32 54,70 17,114 -34,9 -68,18 -108,26 -32,-26 -58,-51 -84,-75 -13,-57 10,-88 67,-93 10,-33 31,-54 69,-46z"/>
    <g>
     <path class="fil12" d="M1871 1796c-81,-37 -57,-104 -84,-154 27,10 58,15 64,40 28,-27 51,-30 73,-59 5,36 24,50 36,87 17,-19 47,-9 75,-4 -47,31 -56,102 -145,95 -6,10 -9,21 -8,35 -4,-1 -9,-1 -13,-2 1,-13 2,-26 2,-38z"/>
     <path id="1" class="fil13" d="M1787 1643l2 -2 2 5 2 5 2 5 2 5 1 5 1 5 1 5 1 5 1 5 1 5 1 5 1 5 1 5 1 5 1 5 1 5 1 5 2 5 2 5 2 5 2 5 3 5 3 5 3 5 4 4 4 4 5 4 5 4 6 4 6 4 7 4 7 4 -1 3 -7 -4 -7 -4 -6 -4 -6 -4 -5 -4 -5 -4 -4 -5 -4 -5 -3 -5 -3 -5 -3 -5 -2 -5 -2 -5 -2 -5 -2 -5 -1 -5 -1 -5 -1 -5 -1 -5 -1 -5 -1 -5 -1 -5 -1 -5 -1 -5 -1 -5 -1 -5 -1 -5 -1 -5 -2 -5 -2 -5 -2 -5 -2 -5 2 -2 -1 3zm66 40l-3 -1 -1 -2 -1 -2 -1 -2 -1 -2 -1 -2 -1 -2 -1 -2 -1 -2 -2 -1 -2 -1 -2 -1 -2 -1 -2 -1 -2 -1 -2 -1 -2 -1 -2 -1 -2 -1 -2 -1 -2 -1 -2 -1 -2 -1 -3 -1 -3 -1 -3 -1 -3 -1 -3 -1 -3 -1 -3 -1 -3 -1 -3 -1 -3 -1 1 -3 3 1 3 1 3 1 3 1 3 1 3 1 3 1 3 1 3 1 3 1 3 1 2 1 2 1 2 1 2 1 2 1 2 1 2 1 2 1 2 1 2 1 2 1 2 2 2 2 2 2 1 2 1 2 1 2 1 2 1 2 1 2 1 2 -3 -1 2 2zm0 0l-2 2 -1 -3 3 1zm70 -60l3 1 -2 3 -2 3 -2 2 -2 2 -2 2 -2 2 -2 2 -2 2 -2 2 -2 2 -2 2 -2 2 -2 2 -2 2 -2 1 -2 1 -2 1 -2 1 -2 1 -2 1 -2 2 -2 2 -2 2 -2 2 -2 2 -2 2 -2 2 -2 2 -2 2 -3 2 -3 2 -3 2 -2 -2 3 -2 3 -2 3 -2 3 -2 3 -2 2 -2 2 -2 2 -2 2 -2 2 -2 2 -2 2 -2 2 -2 2 -1 2 -1 2 -1 2 -1 2 -1 2 -2 2 -2 2 -2 2 -2 2 -2 2 -2 2 -2 2 -2 2 -2 2 -2 2 -2 2 -2 2 -2 2 -3 3 1 -3 0zm0 -1l2 -3 1 4 -3 -1zm39 89l-3 -1 -1 -3 -1 -3 -1 -3 -1 -3 -1 -3 -1 -3 -1 -3 -1 -3 -1 -3 -1 -3 -1 -3 -1 -2 -1 -2 -1 -2 -1 -2 -1 -2 -1 -2 -1 -2 -1 -2 -1 -2 -1 -2 -1 -3 -1 -3 -1 -3 -1 -3 -1 -3 -1 -3 -1 -3 -1 -3 -1 -3 -1 -3 -1 -3 3 0 0 3 1 3 1 3 1 3 1 3 1 3 1 3 1 3 1 3 1 3 1 2 1 2 1 2 1 2 1 2 1 2 1 2 1 2 1 2 1 2 1 2 1 3 1 3 1 3 1 3 1 3 1 3 1 3 1 3 1 3 1 3 1 3 -3 -1 2 2zm0 0l-2 2 -1 -3 3 1zm73 -7l1 3 -3 0 -3 0 -3 0 -3 -1 -3 -1 -3 -1 -3 -1 -3 -1 -3 0 -3 0 -3 0 -3 0 -3 0 -3 0 -2 0 -2 0 -2 0 -2 0 -2 0 -2 0 -2 0 -2 0 -2 0 -2 1 -2 1 -2 1 -2 1 -2 1 -2 1 -2 1 -2 1 -2 2 -2 -2 2 -2 2 -2 2 -1 2 -1 2 -1 2 -1 2 -1 2 -1 2 -1 2 0 2 0 2 0 2 0 2 0 2 0 2 0 3 0 3 0 3 0 3 0 3 0 3 0 3 0 3 0 3 1 3 1 3 1 3 1 3 1 3 0 3 0 3 0 1 3 -2 -3zm1 0l4 1 -4 2 -1 -3zm-146 96l2 -1 8 0 8 0 7 0 7 -1 6 -1 6 -2 6 -2 5 -2 5 -2 5 -3 5 -3 4 -3 4 -3 4 -4 4 -4 4 -4 4 -4 3 -4 3 -4 3 -4 3 -4 3 -4 3 -4 3 -4 3 -4 3 -4 4 -4 4 -4 4 -4 4 -3 4 -3 4 -3 2 3 -4 3 -4 3 -4 3 -4 4 -4 4 -3 4 -3 4 -3 4 -3 4 -3 4 -3 4 -3 4 -3 4 -3 4 -3 4 -4 4 -4 4 -4 4 -4 4 -4 3 -4 3 -5 3 -5 3 -5 2 -6 2 -6 2 -6 2 -7 1 -7 1 -7 0 -8 0 -8 0 2 -1 -3 -2zm0 0l1 -1 1 0 -2 1zm-7 34l-2 2 0 -1 0 -1 0 -1 0 -1 0 -1 0 -1 0 -1 0 -1 0 -1 0 -1 0 -1 0 -1 0 -1 0 -1 0 -1 0 -1 0 -1 0 -1 0 -1 0 -1 0 -1 0 -1 0 -1 0 -1 0 -1 0 -1 0 -1 0 -1 1 -1 1 -1 1 -1 1 -1 3 2 -1 1 -1 1 -1 1 0 1 0 1 0 1 0 1 0 1 0 1 0 1 0 1 0 1 0 1 0 1 0 1 0 1 0 1 0 1 0 1 0 1 0 1 0 1 0 1 0 1 0 1 0 1 0 1 0 1 0 1 0 1 0 1 0 1 -2 2 1 -3zm1 2l0 2 -2 -1 2 -2zm-13 -1l-2 -2 0 0 0 0 0 0 0 0 0 0 0 0 0 0 0 0 0 0 0 0 0 0 0 0 0 0 0 0 0 0 0 0 0 0 0 0 0 0 0 0 0 0 0 0 0 0 0 0 0 0 0 0 0 0 0 0 0 0 0 0 0 0 0 0 -1 3 0 0 0 0 0 0 0 0 0 0 0 0 0 0 0 0 0 0 0 0 0 0 0 0 0 0 0 0 0 0 0 0 0 0 0 0 0 0 0 0 0 0 0 0 0 0 0 0 0 0 0 0 0 0 0 0 0 0 0 0 0 0 0 0 -2 -2 3 0zm-2 1l-2 0 0 -2 2 2zm3 -41l1 2 0 1 0 1 0 1 0 1 0 1 0 1 0 1 0 1 0 1 0 1 0 1 0 1 0 1 0 1 0 1 0 1 0 1 0 1 0 1 0 1 0 1 0 1 0 1 0 1 0 1 0 1 0 1 0 1 0 1 0 1 0 1 0 1 -3 0 0 -1 0 -1 0 -1 0 -1 0 -1 0 -1 0 -1 0 -1 0 -1 0 -1 0 -1 0 -1 0 -1 0 -1 0 -1 0 -1 0 -1 0 -1 0 -1 0 -1 0 -1 0 -1 0 -1 0 -1 0 -1 0 -1 0 -1 0 -1 0 -1 0 -1 0 -1 0 -1 1 2 1 -3zm0 0l1 0 0 1 -1 -2z"/>
    </g>
    <path class="fil11" d="M1895 1719c38,2 53,28 55,62 54,19 69,55 43,107 -31,17 -62,34 -99,52 -37,-17 -68,-35 -99,-52 -26,-52 -10,-88 44,-107 2,-35 17,-60 56,-62z"/>
    <g>
     <path class="fil12" d="M1883 2009c-88,-16 -79,-87 -117,-129 28,3 60,0 72,23 21,-33 43,-42 57,-76 13,34 35,43 56,76 12,-23 44,-20 72,-23 -38,42 -31,113 -118,128 -4,11 -4,23 0,36 -4,0 -9,1 -13,2 -2,-13 -4,-26 -7,-37z"/>
     <path id="1" class="fil13" d="M1765 1881l1 -3 3 4 3 4 3 4 3 5 3 5 2 5 2 5 2 5 2 5 2 5 2 5 2 5 2 5 2 5 2 5 2 5 3 5 3 5 3 4 3 4 3 4 4 4 4 4 4 4 5 3 5 3 5 3 6 3 6 2 7 2 7 2 8 2 -1 3 -8 -2 -8 -2 -7 -2 -7 -3 -6 -3 -6 -3 -5 -3 -5 -4 -4 -4 -4 -4 -4 -4 -4 -4 -3 -4 -3 -5 -3 -5 -3 -5 -3 -5 -2 -5 -2 -5 -2 -5 -2 -5 -2 -5 -2 -5 -2 -5 -2 -5 -2 -5 -2 -5 -3 -5 -3 -4 -3 -4 -3 -4 -3 -4 1 -3 0 3zm73 22l-3 0 -1 -2 -1 -2 -1 -2 -1 -2 -1 -1 -2 -1 -2 -1 -2 -1 -2 -1 -2 -1 -2 -1 -2 -1 -2 -1 -2 -1 -2 -1 -2 0 -2 0 -2 0 -3 0 -3 0 -3 0 -3 0 -3 0 -3 0 -3 0 -3 0 -3 0 -3 0 -3 0 -3 0 -3 0 -3 0 0 -3 3 0 3 0 3 0 3 0 3 0 3 0 3 0 3 0 3 0 3 0 3 0 3 0 3 0 3 0 3 0 2 0 2 1 2 1 2 1 2 1 2 1 2 1 2 1 2 1 2 1 2 1 2 1 2 2 2 2 1 2 1 2 1 2 -3 0 3 2zm0 0l-2 2 -1 -3 3 0zm54 -76l3 0 -1 3 -1 3 -1 3 -2 3 -2 3 -2 3 -2 2 -2 2 -2 2 -2 2 -2 2 -2 2 -2 2 -2 2 -2 2 -2 2 -2 2 -2 2 -2 2 -2 2 -2 2 -2 2 -2 2 -2 2 -2 2 -2 2 -2 2 -2 3 -2 3 -2 3 -2 3 -2 3 -3 -2 2 -3 2 -3 2 -3 2 -3 2 -3 2 -2 2 -2 2 -2 2 -2 2 -2 2 -2 2 -2 2 -2 2 -2 2 -2 2 -2 2 -2 2 -2 2 -2 2 -2 2 -2 2 -2 2 -2 2 -2 2 -2 2 -2 2 -2 2 -3 1 -3 1 -3 1 -3 1 -3 3 0 -3 1zm0 -1l2 -4 1 4 -3 0zm59 77l-3 0 -2 -3 -2 -3 -2 -3 -2 -3 -2 -3 -2 -2 -2 -2 -2 -2 -2 -2 -2 -2 -2 -2 -2 -2 -2 -2 -2 -2 -2 -2 -2 -2 -2 -2 -2 -2 -2 -2 -2 -2 -2 -2 -2 -2 -2 -2 -2 -2 -2 -2 -2 -2 -2 -3 -1 -3 -1 -3 -1 -3 -1 -3 -1 -3 3 -1 1 3 1 3 1 3 1 3 1 3 1 2 2 2 2 2 2 2 2 2 2 2 2 2 2 2 2 2 2 2 2 2 2 2 2 2 2 2 2 2 2 2 2 2 2 2 2 2 2 2 2 2 2 2 2 3 2 3 2 3 2 3 2 3 -3 0 3 1zm0 0l-1 3 -2 -2 3 0zm69 -24l1 3 -3 0 -3 0 -3 0 -3 0 -3 0 -3 0 -3 0 -3 0 -3 0 -3 0 -3 0 -3 0 -3 0 -3 0 -2 0 -2 0 -2 0 -2 1 -2 1 -2 1 -2 1 -2 1 -2 1 -2 1 -2 1 -2 1 -2 1 -1 1 -1 2 -1 2 -1 2 -1 2 -3 -1 1 -2 1 -2 1 -2 2 -2 2 -2 2 -1 2 -1 2 -1 2 -1 2 -1 2 -1 2 -1 2 -1 2 -1 2 -1 2 -1 2 0 3 0 3 0 3 0 3 0 3 0 3 0 3 0 3 0 3 0 3 0 3 0 3 0 3 0 3 0 3 0 1 3 -2 -2zm-119 129l1 -1 8 -2 7 -2 7 -2 6 -2 6 -3 5 -3 5 -3 5 -3 4 -4 4 -4 4 -4 3 -4 3 -4 3 -4 3 -4 3 -5 3 -5 2 -5 2 -5 2 -5 2 -5 2 -5 2 -5 2 -5 2 -5 2 -5 3 -5 3 -5 3 -4 3 -4 3 -4 4 -4 2 2 -3 4 -3 4 -3 4 -3 4 -3 4 -2 5 -2 5 -2 5 -2 5 -2 5 -2 5 -2 5 -2 5 -2 5 -2 5 -3 5 -3 5 -3 5 -3 4 -3 4 -4 4 -4 4 -4 4 -4 4 -5 4 -5 3 -6 3 -6 3 -7 3 -7 2 -8 2 -8 2 1 -1 -3 -1zm0 0l0 -1 1 0 -1 1zm1 34l-2 2 0 -1 0 -1 0 -1 0 -1 0 -1 0 -1 0 -1 0 -1 0 -1 0 -1 0 -1 0 -1 0 -1 0 -1 0 -1 0 -1 0 -1 0 -1 0 -1 0 -1 0 -1 0 -1 0 -1 0 -1 0 -1 0 -1 0 -1 0 -1 0 -1 0 -1 0 -1 0 -1 3 1 0 1 0 1 0 1 0 1 0 1 0 1 0 1 0 1 0 1 0 1 0 1 0 1 0 1 0 1 0 1 0 1 0 1 0 1 0 1 0 1 0 1 0 1 0 1 0 1 0 1 0 1 0 1 0 1 0 1 0 1 0 1 0 1 -2 2 0 -3zm2 1l1 2 -2 0 2 -2zm-13 2l-2 -1 0 0 0 0 0 0 0 0 0 0 0 0 0 0 0 0 0 0 0 0 0 0 0 0 0 0 0 0 0 0 0 0 0 0 0 0 0 0 0 0 0 0 0 0 0 0 0 0 0 0 0 0 0 0 0 0 0 0 0 0 0 0 0 0 0 3 0 0 0 0 0 0 0 0 0 0 0 0 0 0 0 0 0 0 0 0 0 0 0 0 0 0 0 0 0 0 0 0 0 0 0 0 0 0 0 0 0 0 0 0 0 0 0 0 0 0 0 0 0 0 0 0 0 0 0 0 0 0 0 0 -2 -1 3 0zm-1 2l-2 0 0 -2 2 1zm-7 -41l1 1 0 1 0 1 0 1 0 1 0 1 0 1 0 1 0 1 0 1 0 1 0 1 0 1 0 1 0 1 0 1 0 1 0 1 0 1 0 1 0 1 0 1 0 1 0 1 0 1 0 1 0 1 0 1 0 1 0 1 0 1 0 1 0 1 -3 0 0 -1 0 -1 0 -1 0 -1 0 -1 0 -1 0 -1 0 -1 0 -1 0 -1 0 -1 0 -1 0 -1 0 -1 0 -1 0 -1 0 -1 0 -1 0 -1 0 -1 0 -1 0 -1 0 -1 0 -1 0 -1 0 -1 0 -1 0 -1 0 -1 0 -1 0 -1 0 -1 1 1 1 -3zm0 0l1 0 0 1 -1 -1z"/>
    </g>
    <path class="fil11" d="M1892 1941c38,-3 56,20 62,54 56,12 76,45 57,100 -29,21 -57,43 -91,65 -39,-12 -72,-25 -105,-38 -32,-48 -22,-85 29,-112 -3,-35 9,-62 47,-69z"/>
    <g>
     <path class="fil12" d="M1919 2229c-89,-3 -90,-75 -133,-111 28,-1 60,-8 74,13 16,-35 37,-47 47,-83 18,32 41,38 65,67 8,-24 40,-26 68,-32 -32,47 -15,116 -100,144 -2,11 -1,23 5,35 -4,1 -9,2 -13,4 -3,-12 -8,-25 -12,-36z"/>
     <path id="1" class="fil13" d="M1786 2120l1 -3 4 4 4 4 4 4 3 4 3 4 3 4 3 4 3 4 3 5 3 5 3 5 3 5 3 4 3 4 3 4 3 4 3 4 3 4 4 4 4 4 4 4 4 3 4 3 5 3 5 3 5 2 6 2 6 2 7 2 7 1 8 1 8 1 0 3 -8 -1 -8 -1 -7 -1 -7 -2 -6 -2 -6 -2 -6 -3 -5 -3 -5 -3 -5 -3 -4 -4 -4 -4 -4 -4 -4 -4 -3 -4 -3 -4 -3 -4 -3 -4 -3 -4 -3 -5 -3 -5 -3 -5 -3 -5 -3 -4 -3 -4 -3 -4 -3 -4 -3 -4 -3 -4 -3 -4 -4 -4 -4 -3 1 -3 0 3zm-1 0l-3 -3 4 0 -1 3zm77 12l-3 0 -1 -2 -1 -2 -1 -1 -2 -1 -2 -1 -2 -1 -2 -1 -2 -1 -2 -1 -2 -1 -2 -1 -2 0 -2 0 -2 0 -2 0 -2 0 -2 0 -2 0 -3 0 -3 0 -3 0 -3 0 -3 0 -3 0 -3 0 -3 0 -3 0 -3 0 -3 0 -3 0 -3 0 -3 0 0 -3 3 0 3 0 3 0 3 0 3 0 3 0 3 0 3 0 3 0 3 0 3 0 3 0 3 0 3 0 3 0 3 0 2 0 2 0 2 0 2 0 2 1 2 1 2 1 2 1 2 1 2 1 2 1 2 1 2 2 2 2 2 2 1 2 -3 0 3 1zm0 0l-1 3 -2 -2 3 0zm44 -83l3 0 -1 3 -1 3 -1 3 -1 3 -1 3 -1 3 -1 3 -1 3 -1 3 -1 2 -1 2 -1 2 -2 2 -2 2 -2 2 -2 2 -2 2 -2 2 -2 2 -2 2 -2 2 -2 2 -2 2 -2 2 -2 3 -2 3 -2 3 -2 3 -2 3 -2 3 -2 3 -1 3 -3 -1 2 -3 2 -3 2 -3 2 -3 2 -3 2 -3 2 -3 2 -3 2 -2 2 -2 2 -2 2 -2 2 -2 2 -2 2 -2 2 -2 2 -2 2 -2 2 -2 1 -2 1 -2 1 -2 1 -2 1 -2 1 -2 1 -3 1 -3 1 -3 1 -3 1 -3 1 -3 1 -3 3 0 -3 2zm0 -1l1 -4 2 4 -3 0zm68 68l-3 0 -2 -3 -2 -3 -2 -2 -2 -2 -2 -2 -2 -2 -2 -2 -2 -2 -2 -2 -2 -2 -2 -2 -2 -2 -2 -2 -2 -2 -2 -2 -2 -2 -2 -2 -2 -2 -2 -2 -2 -2 -2 -2 -2 -2 -2 -2 -2 -2 -2 -2 -2 -2 -2 -2 -2 -2 -2 -3 -2 -3 -2 -3 -2 -3 3 -2 2 3 2 3 2 3 2 2 2 2 2 2 2 2 2 2 2 2 2 2 2 2 2 2 2 2 2 2 2 2 2 2 2 2 2 2 2 2 2 2 2 2 2 2 2 2 2 2 2 2 2 2 2 2 2 2 2 2 2 2 2 3 2 3 -3 0 3 1zm0 0l-1 3 -2 -2 3 0zm65 -34l2 3 -3 1 -3 1 -3 1 -3 1 -3 1 -3 1 -3 1 -3 1 -3 1 -3 1 -3 1 -3 1 -2 1 -2 1 -2 1 -2 1 -2 1 -2 1 -2 1 -2 1 -2 1 -2 1 -2 1 -2 1 -2 1 -2 1 -1 2 -1 2 -1 2 -1 2 -1 2 -1 2 -3 -1 1 -2 1 -2 1 -2 1 -2 1 -2 2 -2 2 -2 2 -1 2 -1 2 -1 2 -1 2 -1 2 -1 2 -1 2 -1 2 -1 2 -1 2 -1 3 -1 3 -1 3 -1 3 -1 3 -1 3 -1 3 -1 3 -1 3 -1 3 -1 3 -1 3 -1 3 -1 3 -1 2 3 -3 -2zm-101 144l1 -1 8 -3 7 -3 6 -3 6 -3 5 -3 5 -4 5 -4 4 -4 4 -4 3 -4 3 -4 3 -5 3 -5 2 -5 2 -5 2 -5 2 -5 2 -5 2 -5 2 -5 2 -5 2 -5 2 -5 2 -5 2 -5 2 -5 2 -5 2 -5 2 -5 2 -5 3 -5 3 -5 3 2 -3 4 -3 5 -2 5 -2 5 -2 5 -2 5 -2 5 -2 5 -2 5 -2 5 -2 5 -2 5 -2 5 -2 5 -2 5 -2 5 -2 5 -2 5 -2 5 -3 5 -3 5 -3 5 -4 4 -4 4 -4 4 -5 4 -5 4 -6 4 -6 3 -7 3 -7 3 -8 3 1 -1 -3 -1zm0 0l0 -1 1 0 -1 1zm6 34l-1 2 0 -1 0 -1 0 -1 0 -1 0 -1 0 -1 0 -1 0 -1 0 -1 0 -1 0 -1 0 -1 0 -1 0 -1 0 -1 0 -1 0 -1 0 -1 0 -1 0 -1 0 -1 0 -1 0 -1 0 -1 0 -1 0 -1 0 -1 0 -1 0 -1 0 -1 0 -1 0 -1 3 1 0 1 0 1 0 1 0 1 0 1 0 1 0 1 0 1 0 1 0 1 0 1 0 1 0 1 0 1 0 1 0 1 0 1 0 1 0 1 0 1 0 1 0 1 0 1 0 1 0 1 0 1 0 1 0 1 0 1 0 1 0 1 0 1 -1 2 0 -3zm2 1l1 2 -2 0 1 -2zm-13 4l-2 -1 0 0 0 0 0 0 0 0 0 0 0 0 0 0 0 0 0 0 0 0 0 0 0 0 0 0 0 0 0 0 0 0 0 0 0 0 0 0 0 0 0 0 0 0 0 0 0 0 0 0 0 0 0 0 0 0 0 0 0 0 0 0 0 0 0 3 0 0 0 0 0 0 0 0 0 0 0 0 0 0 0 0 0 0 0 0 0 0 0 0 0 0 0 0 0 0 0 0 0 0 0 0 0 0 0 0 0 0 0 0 0 0 0 0 0 0 0 0 0 0 0 0 0 0 0 0 0 0 0 0 -2 -1 3 -1zm-1 2l-2 1 0 -2 2 1zm-12 -39l1 1 0 1 0 1 0 1 0 1 0 1 0 1 0 1 0 1 0 1 0 1 0 1 0 1 0 1 0 1 0 1 0 1 0 1 0 1 0 1 0 1 0 1 0 1 0 1 0 1 0 1 0 1 0 1 0 1 0 1 0 1 0 1 0 1 -3 1 0 -1 0 -1 0 -1 0 -1 0 -1 0 -1 0 -1 0 -1 0 -1 0 -1 0 -1 0 -1 0 -1 0 -1 0 -1 0 -1 0 -1 0 -1 0 -1 0 -1 0 -1 0 -1 0 -1 0 -1 0 -1 0 -1 0 -1 0 -1 0 -1 0 -1 0 -1 0 -1 1 1 0 -3zm0 0l1 0 0 1 -1 -1z"/>
    </g>
    <path class="fil11" d="M1921 2161c41,-12 66,7 81,39 64,-1 93,28 85,85 -26,27 -53,54 -85,83 -46,-3 -85,-9 -124,-15 -46,-40 -43,-79 7,-116 -11,-33 -4,-63 36,-78z"/>
    <g>
     <path class="fil12" d="M2016 2437c-98,16 -116,-54 -171,-80 31,-7 64,-21 84,-3 9,-38 29,-54 32,-91 26,27 53,28 87,52 4,-25 38,-34 67,-46 -25,53 10,117 -77,162 0,12 5,23 13,34 -5,2 -9,4 -13,6 -7,-11 -14,-23 -21,-33z"/>
     <path id="1" class="fil13" d="M1845 2358l0 -3 5 3 5 3 5 3 5 3 4 3 4 4 4 4 4 4 4 4 4 4 4 4 4 4 4 4 4 4 4 4 4 4 4 3 5 3 5 3 5 3 5 3 5 2 6 2 6 2 6 2 7 1 7 1 7 1 8 0 8 0 8 -1 9 -1 1 3 -9 1 -9 1 -8 0 -8 0 -7 -1 -7 -1 -7 -1 -6 -2 -6 -2 -6 -2 -6 -3 -5 -3 -5 -3 -5 -3 -5 -3 -5 -3 -4 -4 -4 -4 -4 -4 -4 -4 -4 -4 -4 -4 -4 -4 -4 -4 -4 -4 -4 -4 -4 -3 -4 -3 -5 -3 -5 -3 -5 -3 -5 -3 0 -3 1 3zm85 -5l-3 1 -2 -1 -2 -1 -2 -1 -2 -1 -2 -1 -2 -1 -2 -1 -2 0 -2 0 -2 0 -2 0 -3 0 -3 0 -3 0 -3 0 -3 0 -3 0 -3 0 -3 1 -3 1 -3 1 -3 1 -3 1 -3 1 -3 1 -3 1 -3 1 -3 1 -3 1 -3 1 -3 1 -3 1 -1 -3 3 -1 3 -1 3 -1 3 -1 3 -1 3 -1 3 -1 3 -1 3 -1 3 -1 3 -1 3 -1 3 -1 3 -1 3 -1 3 0 3 0 3 0 3 0 3 0 3 0 3 0 3 0 3 0 2 0 2 1 2 1 2 1 2 1 2 1 2 1 2 2 -3 1 3 1zm0 0l-1 3 -2 -2 3 -1zm29 -90l3 -1 0 3 0 3 0 3 -1 3 -1 3 -1 3 -1 3 -1 3 -1 3 -1 3 -1 3 -1 3 -1 3 -1 3 -1 3 -1 3 -1 3 -1 3 -1 3 -1 3 -1 3 -1 3 -1 3 -1 3 -1 3 -1 3 -1 3 -1 3 -1 3 -1 3 -1 3 -1 3 -3 -1 1 -4 1 -3 1 -3 1 -3 1 -3 1 -3 1 -3 1 -3 1 -3 1 -3 1 -3 1 -3 1 -3 1 -3 1 -3 1 -3 1 -3 1 -3 1 -3 1 -3 1 -3 1 -3 1 -3 1 -3 1 -3 1 -3 1 -3 1 -3 1 -3 0 -3 0 -3 0 -3 3 -1 -2 2zm0 -1l0 -4 3 3 -3 1zm90 52l-3 1 -3 -2 -3 -2 -3 -2 -3 -2 -3 -2 -3 -2 -3 -2 -3 -1 -3 -1 -3 -1 -3 -1 -3 -1 -3 -1 -3 -1 -3 -1 -3 -1 -3 -1 -3 -1 -3 -1 -3 -1 -3 -1 -3 -1 -3 -2 -3 -2 -3 -2 -3 -2 -3 -2 -3 -2 -3 -2 -3 -2 -3 -2 -3 -3 2 -2 2 2 2 2 2 2 2 2 2 2 2 2 2 2 2 2 3 2 3 1 3 1 3 1 3 1 3 1 3 1 3 1 3 1 3 1 3 1 3 1 3 1 3 1 3 1 3 1 3 1 3 2 3 2 3 2 3 2 3 2 3 2 3 2 -3 1 3 0zm0 0l0 3 -2 -2 3 -1zm64 -47l2 2 -3 1 -3 1 -3 1 -3 1 -3 1 -3 1 -3 1 -3 1 -3 1 -3 1 -3 1 -3 1 -3 1 -3 1 -2 1 -2 1 -2 1 -2 1 -2 1 -2 1 -2 1 -2 2 -2 2 -2 2 -1 2 -1 2 -1 2 -1 2 -1 2 -1 2 -1 2 0 2 -3 0 0 -2 1 -2 1 -2 1 -2 1 -2 1 -2 1 -2 2 -2 2 -2 2 -2 2 -2 2 -2 2 -1 2 -1 2 -1 2 -1 2 -1 3 -1 3 -1 3 -1 3 -1 3 -1 3 -1 3 -1 3 -1 3 -1 3 -1 3 -1 3 -1 3 -1 3 -1 3 -1 2 2 -3 -1zm-77 163l1 -1 8 -4 7 -4 6 -4 6 -5 5 -5 5 -5 4 -5 4 -5 3 -5 3 -5 2 -5 2 -5 2 -5 2 -5 1 -5 1 -5 1 -5 1 -5 1 -5 1 -5 1 -5 1 -5 1 -5 1 -5 1 -5 1 -5 1 -5 1 -5 1 -5 2 -5 2 -5 2 -5 3 1 -2 5 -2 5 -2 5 -1 5 -1 5 -1 5 -1 5 -1 5 -1 5 -1 5 -1 5 -1 5 -1 5 -1 5 -1 5 -1 5 -1 5 -1 5 -2 5 -2 5 -2 5 -3 5 -3 5 -3 5 -4 5 -4 5 -5 5 -5 5 -6 5 -7 5 -7 4 -8 4 1 -1 -3 0zm0 0l0 -1 1 0 -1 1zm14 32l-1 3 -1 -1 -1 -1 -1 -1 -1 -1 -1 -1 -1 -1 -1 -1 -1 -1 -1 -1 -1 -1 -1 -1 -1 -1 -1 -1 0 -1 0 -1 0 -1 0 -1 0 -1 0 -1 0 -1 0 -1 0 -1 0 -1 0 -1 0 -1 0 -1 0 -1 0 -1 0 -1 0 -1 0 -1 0 -1 3 0 0 1 0 1 0 1 0 1 0 1 0 1 0 1 0 1 0 1 0 1 0 1 0 1 0 1 0 1 0 1 0 1 0 1 0 1 0 1 0 1 1 1 1 1 1 1 1 1 1 1 1 1 1 1 1 1 1 1 1 1 1 1 1 1 -1 3 -1 -3zm2 1l1 2 -2 1 1 -3zm-13 7l-2 -1 0 0 0 0 0 0 0 0 0 0 0 0 0 0 0 0 0 0 0 0 0 0 0 0 0 0 0 0 0 0 0 0 0 0 0 0 0 0 0 0 0 0 0 0 0 0 0 0 0 0 0 0 0 0 0 0 0 0 0 0 0 0 0 0 1 3 0 0 0 0 0 0 0 0 0 0 0 0 0 0 0 0 0 0 0 0 0 0 0 0 0 0 0 0 0 0 0 0 0 0 0 0 0 0 0 0 0 0 0 0 0 0 0 0 0 0 0 0 0 0 0 0 0 0 0 0 0 0 0 0 -2 -1 3 -2zm-1 2l-1 1 -1 -1 2 1zm-22 -36l2 1 1 1 1 1 1 1 1 1 1 1 1 1 1 1 1 1 1 1 1 1 1 1 1 1 1 1 1 1 1 1 1 1 1 1 1 1 1 1 1 1 1 1 1 1 1 1 1 1 1 1 1 1 1 1 1 1 1 1 1 1 1 1 1 1 -3 2 -1 -1 -1 -1 -1 -1 -1 -1 -1 -1 -1 -1 -1 -1 -1 -1 -1 -1 -1 -1 -1 -1 -1 -1 -1 -1 -1 -1 -1 -1 -1 -1 -1 -1 -1 -1 -1 -1 -1 -1 -1 -1 -1 -1 -1 -1 -1 -1 -1 -1 -1 -1 -1 -1 -1 -1 -1 -1 -1 -1 -1 -1 -1 -1 2 1 -1 -3zm0 0l1 0 1 1 -2 -1z"/>
    </g>
    <path class="fil11" d="M2001 2375c42,-16 70,1 89,34 68,-7 101,20 97,82 -25,31 -51,62 -82,96 -48,1 -90,-1 -132,-3 -52,-38 -53,-79 -4,-123 -14,-34 -10,-66 31,-86z"/>
    <g>
     <path class="fil12" d="M2127 2657c-102,26 -127,-46 -188,-68 32,-11 65,-28 88,-12 6,-41 26,-60 25,-99 30,26 59,24 96,46 2,-27 37,-40 67,-56 -21,58 21,123 -67,179 1,12 7,24 17,34 -5,2 -9,5 -14,8 -8,-11 -17,-22 -25,-33z"/>
     <path id="1" class="fil13" d="M1939 2590l0 -3 6 2 6 3 5 3 5 3 5 3 5 3 5 3 5 4 5 4 5 4 5 4 5 4 5 4 5 4 5 3 5 3 5 3 5 3 5 3 5 3 6 2 6 2 6 2 6 1 7 1 7 1 7 0 8 0 8 -1 8 -1 9 -2 9 -2 1 3 -9 2 -9 2 -9 1 -8 1 -8 0 -8 0 -7 -1 -7 -1 -7 -1 -6 -2 -6 -2 -6 -2 -6 -3 -5 -3 -5 -3 -5 -3 -5 -3 -5 -3 -5 -4 -5 -4 -5 -4 -5 -4 -5 -4 -5 -4 -5 -4 -5 -3 -5 -3 -5 -3 -5 -3 -5 -3 -5 -2 -6 -2 0 -3 1 3zm89 -13l-3 1 -2 -1 -2 -1 -2 -1 -2 -1 -2 -1 -2 -1 -2 0 -2 0 -3 0 -3 0 -3 0 -3 0 -3 0 -3 0 -3 1 -3 1 -3 1 -3 1 -3 1 -3 1 -3 1 -3 1 -3 1 -3 1 -3 1 -3 1 -3 1 -3 1 -3 1 -3 1 -3 1 -3 1 -1 -3 3 -1 3 -1 3 -1 3 -1 3 -1 3 -1 3 -1 3 -1 3 -1 3 -1 3 -1 3 -1 3 -1 3 -1 3 -1 3 -1 3 -1 3 -1 3 0 3 0 3 0 3 0 3 0 3 0 3 0 3 0 3 1 3 1 2 1 2 1 2 1 2 2 -3 1 3 1zm0 0l0 3 -2 -2 3 -1zm23 -98l3 -1 0 4 0 4 0 3 0 3 0 3 -1 3 -1 3 -1 3 -1 3 -1 3 -1 3 -1 3 -1 3 -1 3 -1 3 -1 3 -1 3 -1 3 -1 3 -1 3 -1 3 -1 3 -1 3 -1 3 -1 3 -1 3 -1 3 -1 3 -1 3 -1 4 -1 4 -1 4 -3 -1 1 -4 1 -4 1 -4 1 -3 1 -3 1 -3 1 -3 1 -3 1 -3 1 -3 1 -3 1 -3 1 -3 1 -3 1 -3 1 -3 1 -3 1 -3 1 -3 1 -3 1 -3 1 -3 1 -3 1 -3 1 -3 1 -3 0 -3 0 -3 0 -3 0 -3 0 -3 0 -4 3 -1 -2 2zm-1 -1l0 -4 3 2 -3 1zm99 46l-2 1 -3 -2 -3 -2 -3 -2 -3 -2 -3 -2 -3 -1 -3 -1 -3 -1 -3 -1 -3 -1 -3 -1 -3 -1 -3 -1 -3 -1 -3 -1 -3 -1 -3 -1 -3 -1 -3 -1 -3 -1 -3 -1 -3 -1 -3 -1 -3 -1 -3 -2 -3 -2 -3 -2 -3 -2 -3 -2 -3 -2 -3 -2 -3 -2 2 -2 3 2 3 2 3 2 3 2 3 2 3 2 3 2 3 1 3 1 3 1 3 1 3 1 3 1 3 1 3 1 3 1 3 1 3 1 3 1 3 1 3 1 3 1 3 1 3 1 3 1 3 1 3 1 3 2 3 2 3 2 3 2 4 2 -2 1 3 0zm0 0l0 3 -2 -1 2 -1zm64 -56l2 2 -3 1 -3 1 -3 1 -3 1 -3 1 -3 1 -3 1 -3 1 -3 1 -3 1 -3 1 -3 1 -3 1 -3 2 -2 2 -2 2 -2 2 -2 2 -2 2 -2 2 -2 2 -2 2 -2 2 -2 2 -1 2 -1 2 -1 2 -1 2 -1 2 -1 2 0 2 0 2 -3 0 0 -3 0 -3 1 -2 1 -2 1 -2 1 -2 1 -2 2 -2 2 -2 2 -2 2 -2 2 -2 2 -2 2 -2 2 -2 2 -2 2 -2 3 -2 3 -2 3 -2 3 -1 3 -1 3 -1 3 -1 3 -1 3 -1 3 -1 3 -1 3 -1 3 -1 3 -1 3 -1 2 2 -3 -1zm-67 179l1 -2 8 -5 7 -5 6 -5 6 -5 5 -5 4 -5 4 -5 3 -5 3 -5 3 -6 2 -6 2 -6 1 -6 1 -6 1 -6 1 -6 0 -6 0 -6 0 -6 0 -6 0 -6 0 -6 0 -6 0 -6 0 -6 0 -6 0 -6 1 -6 1 -6 1 -6 2 -6 2 -6 3 1 -2 5 -1 5 -1 5 -1 5 -1 6 0 6 0 6 0 6 0 6 0 6 0 6 0 6 0 6 0 6 0 6 0 6 -1 6 -1 6 -1 6 -1 6 -2 6 -2 6 -3 6 -3 6 -4 6 -4 6 -5 6 -5 6 -6 5 -6 5 -7 5 -8 5 1 -2 -3 0zm0 0l0 -1 1 -1 -1 2zm18 32l-1 3 -1 -1 -1 -1 -1 -1 -1 -1 -1 -1 -1 -1 -1 -1 -1 -1 -1 -1 -1 -1 -1 -1 -1 -1 -1 -1 -1 -1 -1 -1 -1 -1 -1 -1 -1 -1 0 -1 0 -1 0 -1 0 -1 0 -1 0 -1 0 -1 0 -1 0 -1 0 -1 0 -1 0 -1 0 -1 0 -1 3 0 0 1 0 1 0 1 0 1 0 1 0 1 0 1 0 1 0 1 0 1 0 1 0 1 0 1 0 1 0 1 1 1 1 1 1 1 1 1 1 1 1 1 1 1 1 1 1 1 1 1 1 1 1 1 1 1 1 1 1 1 1 1 1 1 -1 3 -1 -3zm2 0l2 2 -2 1 1 -3zm-13 8l-2 0 0 0 0 0 0 0 0 0 0 0 0 0 0 0 0 0 0 0 0 0 0 0 0 0 0 0 0 0 0 0 0 0 0 0 0 0 0 0 0 0 0 0 0 0 0 0 0 0 0 0 0 0 0 0 0 0 0 0 0 0 0 0 0 0 1 3 0 0 0 0 0 0 0 0 0 0 0 0 0 0 0 0 0 0 0 0 0 0 0 0 0 0 0 0 0 0 0 0 0 0 0 0 0 0 0 0 0 0 0 0 0 0 0 0 0 0 0 0 0 0 0 0 0 0 0 0 0 0 0 0 -2 0 3 -2zm0 2l-1 1 -1 -1 2 0zm-27 -35l2 1 1 1 1 1 1 1 1 1 1 1 1 1 1 1 1 1 1 1 1 1 1 1 1 1 1 1 1 1 1 1 1 1 1 1 1 1 1 1 1 1 1 1 1 1 1 1 1 1 1 1 1 1 1 1 1 1 1 1 1 1 1 1 1 1 -3 2 -1 -1 -1 -1 -1 -1 -1 -1 -1 -1 -1 -1 -1 -1 -1 -1 -1 -1 -1 -1 -1 -1 -1 -1 -1 -1 -1 -1 -1 -1 -1 -1 -1 -1 -1 -1 -1 -1 -1 -1 -1 -1 -1 -1 -1 -1 -1 -1 -1 -1 -1 -1 -1 -1 -1 -1 -1 -1 -1 -1 -1 -1 -1 -1 2 1 -1 -3zm0 0l1 0 1 1 -2 -1z"/>
    </g>
    <path class="fil11" d="M2128 2600c39,-24 71,-12 95,17 66,-20 105,1 113,63 -20,36 -39,72 -64,112 -48,10 -91,16 -133,22 -59,-28 -67,-69 -26,-122 -21,-31 -22,-64 15,-92z"/>
    <g>
     <path class="fil12" d="M2305 2859c-98,46 -136,-21 -201,-32 30,-17 60,-41 87,-29 -1,-42 15,-65 7,-104 35,20 63,13 105,28 -3,-28 30,-47 57,-69 -11,62 43,119 -34,192 4,12 92,82 100,141 -5,22 -45,10 -48,14 -10,-10 -62,-133 -72,-141z"/>
     <path id="1" class="fil13" d="M2105 2828l-1 -3 6 1 6 1 6 2 6 2 6 2 6 2 5 3 5 3 5 3 5 3 5 3 5 3 5 3 5 3 5 3 6 2 6 2 6 2 6 2 6 2 6 1 6 1 6 1 7 0 7 0 7 -1 7 -1 8 -2 8 -2 8 -3 9 -3 9 -4 1 3 -9 4 -9 3 -8 3 -8 2 -8 2 -8 1 -7 1 -7 0 -7 0 -7 -1 -6 -1 -6 -1 -6 -2 -6 -2 -6 -2 -6 -2 -6 -2 -6 -3 -5 -3 -5 -3 -5 -3 -5 -3 -5 -3 -5 -3 -5 -3 -5 -2 -5 -2 -6 -2 -6 -2 -6 -2 -6 -1 -6 -1 -1 -3 2 3zm87 -30l-2 2 -2 -1 -2 -1 -2 -1 -2 0 -2 0 -2 0 -2 0 -3 0 -3 0 -3 1 -3 1 -3 1 -3 1 -3 1 -3 1 -3 1 -3 1 -3 1 -3 1 -3 1 -3 2 -3 2 -3 2 -3 2 -3 2 -3 2 -3 2 -3 2 -3 2 -3 2 -3 2 -3 2 -2 -3 3 -2 3 -2 3 -2 3 -2 3 -2 3 -2 3 -2 3 -2 3 -2 3 -2 3 -2 3 -2 3 -2 3 -1 3 -1 3 -1 3 -1 3 -1 3 -1 3 -1 3 -1 3 -1 3 -1 3 0 3 0 3 0 3 0 3 0 3 0 3 1 3 1 3 1 -2 2 3 0zm0 0l0 3 -2 -1 2 -2zm5 -103l2 -2 1 4 1 4 0 3 0 3 0 3 0 3 0 3 0 3 0 3 0 3 0 3 0 3 0 3 0 3 -1 3 -1 3 -1 3 -1 3 -1 3 -1 3 -1 3 -1 3 -1 3 0 3 0 3 0 3 0 3 0 3 0 4 0 4 0 4 0 4 -3 0 0 -4 0 -4 0 -4 0 -4 0 -4 0 -3 0 -3 0 -3 0 -3 1 -3 1 -3 1 -3 1 -3 1 -3 1 -3 1 -3 1 -3 1 -3 0 -3 0 -3 0 -3 0 -3 0 -3 0 -3 0 -3 0 -3 0 -3 0 -3 0 -3 0 -3 -1 -3 -1 -4 2 -2 -2 3zm-1 -1l-1 -4 3 2 -2 2zm108 27l-2 2 -4 -1 -4 -1 -4 -1 -4 -1 -4 -1 -4 -1 -3 -1 -3 -1 -3 -1 -3 -1 -3 -1 -3 -1 -3 0 -3 0 -3 0 -3 0 -3 -1 -3 -1 -3 -1 -3 -1 -3 -1 -3 -1 -3 -1 -3 -1 -3 -1 -3 -1 -3 -1 -3 -1 -3 -1 -3 -2 -3 -2 -3 -2 2 -3 3 2 3 2 3 2 3 1 3 1 3 1 3 1 3 1 3 1 3 1 3 1 3 1 3 1 3 1 3 1 3 0 3 0 3 0 3 0 3 0 3 1 3 1 3 1 3 1 3 1 3 1 4 1 4 1 4 1 4 1 4 1 4 1 -2 2 3 0zm0 0l0 3 -2 -1 2 -2zm54 -69l3 2 -3 2 -3 2 -3 2 -3 2 -3 2 -3 2 -3 2 -3 2 -3 2 -3 2 -2 2 -2 2 -2 2 -2 2 -2 2 -2 2 -2 2 -2 2 -2 2 -2 2 -2 2 -1 2 -1 2 -1 2 -1 2 -1 2 -1 2 -1 2 0 2 0 2 0 2 0 2 -3 0 0 -3 0 -3 0 -3 0 -3 1 -3 1 -2 1 -2 1 -2 1 -2 1 -2 2 -2 2 -2 2 -2 2 -2 2 -2 2 -2 2 -2 2 -2 2 -2 2 -2 2 -2 2 -2 3 -2 3 -2 3 -2 3 -2 3 -2 3 -2 3 -2 3 -2 3 -2 2 -2 3 2 -3 -1zm-34 193l0 -2 7 -7 6 -7 5 -7 5 -6 4 -6 4 -6 3 -6 2 -6 2 -6 2 -6 1 -6 1 -6 0 -6 0 -6 0 -6 0 -6 -1 -6 -1 -6 -1 -6 -1 -6 -1 -6 -1 -6 -1 -6 -1 -6 -1 -6 -1 -6 -1 -6 0 -6 0 -6 0 -6 0 -6 1 -6 3 1 -1 6 0 6 0 6 0 6 0 6 1 6 1 6 1 6 1 6 1 6 1 6 1 6 1 6 1 6 1 6 1 6 0 6 0 6 0 6 0 6 -1 6 -1 6 -2 6 -2 6 -3 6 -3 6 -4 6 -4 7 -5 7 -6 7 -6 7 -7 7 0 -2 -3 1zm0 0l0 -1 1 -1 0 2zm100 140l0 1 -1 -5 -1 -6 -2 -6 -2 -6 -3 -6 -3 -6 -3 -6 -3 -6 -4 -6 -4 -6 -4 -5 -4 -5 -4 -5 -4 -5 -4 -5 -4 -5 -4 -5 -4 -5 -4 -5 -4 -4 -4 -4 -4 -4 -4 -4 -3 -4 -3 -3 -3 -3 -3 -3 -2 -3 -2 -2 -2 -2 -1 -2 -1 -2 3 -1 0 1 1 1 1 2 2 2 2 2 3 3 3 3 3 3 3 4 4 4 4 4 4 4 4 4 4 5 4 5 4 5 4 5 4 5 4 5 4 5 4 5 4 6 4 6 4 6 3 6 3 6 3 6 3 6 2 6 2 6 1 6 1 6 0 1 -3 -1zm3 0l0 0 0 0 0 -1zm-49 13l-2 0 1 -1 1 0 1 0 1 0 1 0 1 0 1 0 2 0 2 0 2 0 2 0 2 0 2 0 2 0 2 0 2 0 2 0 2 0 2 0 2 0 2 0 2 0 2 -1 2 -1 1 -1 1 -1 1 -1 1 -1 1 -1 1 -1 1 -2 0 -2 3 1 -1 2 -1 2 -1 2 -1 2 -1 1 -2 1 -2 1 -2 1 -2 1 -2 1 -2 0 -2 0 -2 0 -2 0 -2 0 -2 0 -2 0 -2 0 -2 0 -2 0 -2 0 -2 0 -2 0 -2 0 -2 0 -1 0 -1 0 -1 0 -1 0 -1 0 0 0 0 0 -2 0 2 -2zm0 2l-1 1 -1 -1 2 0zm-74 -144l2 0 1 1 1 2 2 2 2 3 2 3 2 4 2 4 2 5 2 5 3 5 3 6 3 6 3 6 3 6 3 6 3 6 3 6 3 6 3 6 3 6 3 6 3 6 3 5 2 5 2 5 2 4 2 4 2 3 2 3 1 2 1 2 1 1 -2 2 -1 -1 -1 -2 -2 -3 -2 -3 -2 -4 -2 -4 -2 -4 -2 -5 -2 -5 -3 -5 -3 -6 -3 -6 -3 -6 -3 -6 -3 -6 -3 -6 -3 -6 -3 -6 -3 -6 -3 -6 -3 -6 -3 -6 -3 -5 -2 -5 -2 -5 -2 -4 -2 -4 -2 -3 -2 -3 -1 -2 -1 -2 -1 -1 2 0 -1 -3zm0 0l1 0 1 1 -2 0z"/>
    </g>
    <path class="fil0" d="M3393 904c739,514 736,1354 150,2026"/>
    <path class="fil14" d="M3397 898c51,35 98,72 141,110 272,237 412,526 432,831 20,304 -79,623 -285,920 -42,60 -87,118 -137,176l-11 -9c50,-57 95,-115 136,-175 204,-294 303,-610 282,-911 -20,-301 -159,-587 -428,-821 -43,-38 -90,-74 -140,-109l8 -12z"/>
    <g>
     <path class="fil3" d="M2646 1636c8,0 14,5 14,11 0,6 -6,11 -14,11 -8,0 -14,-5 -14,-11 0,-6 6,-11 14,-11z"/>
     <path id="1" class="fil9" d="M2664 1647l-7 0 0 0 0 0 0 0 0 0 0 0 0 0 0 0 0 0 0 0 0 0 0 0 0 0 0 0 0 0 0 0 0 0 0 0 0 0 0 0 0 0 0 0 0 0 0 0 0 0 0 0 0 0 -1 0 -1 0 -1 0 -1 0 -1 0 -1 0 -1 0 0 -7 1 0 1 0 1 0 1 0 1 0 1 0 1 0 1 0 1 0 1 0 1 0 1 0 1 0 1 0 1 0 1 0 1 0 1 1 1 1 0 1 0 1 0 1 0 1 0 1 0 1 0 1 0 1 0 1 0 1 0 1 0 1 0 1 0 0zm-17 15l0 -7 0 0 1 0 1 0 1 0 1 0 1 0 1 0 1 0 0 0 0 0 0 0 0 0 0 0 0 0 0 0 0 0 0 0 0 0 0 0 0 0 0 0 0 0 0 0 0 0 0 0 0 0 0 0 0 0 0 0 0 0 0 0 0 0 0 0 7 0 0 1 0 1 0 1 0 1 0 1 0 1 0 1 0 1 0 1 0 1 0 1 0 1 0 1 -1 1 -1 1 -1 0 -1 0 -1 0 -1 0 -1 0 -1 0 -1 0 -1 0 -1 0 -1 0 -1 0 -1 0 -1 0 -1 0 -1 0 -1 0 -1 0 0 0zm-17 -15l7 0 0 0 0 0 0 0 0 0 0 0 0 0 0 0 0 0 0 0 0 0 0 0 0 0 0 0 0 0 0 0 0 0 0 0 0 0 0 0 0 0 0 0 0 0 0 0 0 0 0 0 0 0 1 0 1 0 1 0 1 0 1 0 1 0 1 0 0 7 -1 0 -1 0 -1 0 -1 0 -1 0 -1 0 -1 0 -1 0 -1 0 -1 0 -1 0 -1 0 -1 0 -1 0 -1 0 -1 0 -1 0 -1 -1 -1 -1 -1 -1 0 -1 0 -1 0 -1 0 -1 0 -1 0 -1 0 -1 0 -1 0 -1 0 -1 0 -1 0 -1 0 0zm17 -15l0 7 0 0 -1 0 -1 0 -1 0 -1 0 -1 0 -1 0 -1 0 0 0 0 0 0 0 0 0 0 0 0 0 0 0 0 0 0 0 0 0 0 0 0 0 0 0 0 0 0 0 0 0 0 0 0 0 0 0 0 0 0 0 0 0 0 0 0 0 0 0 -7 0 0 -1 0 -1 0 -1 0 -1 0 -1 0 -1 0 -1 0 -1 0 -1 0 -1 0 -1 0 -1 1 -1 1 -1 1 -1 1 0 1 0 1 0 1 0 1 0 1 0 1 0 1 0 1 0 1 0 1 0 1 0 1 0 1 0 1 0 1 0 1 0 0 0z"/>
    </g>
    <g>
     <path class="fil15" d="M2469 2669l52 20c13,5 18,23 11,42l-12 33c-7,19 -21,29 -34,24l-52 -20c-13,-5 -18,-23 -11,-42l12 -33c7,-19 21,-29 34,-24zm-2 27l38 15c4,2 5,8 4,11l-13 35c-1,3 -5,7 -10,6l-38 -15c-2,-1 -3,-7 -2,-10l13 -35c1,-3 5,-7 7,-6z"/>
     <path id="1" class="fil4 str6" d="M2469 2669l52 20c13,5 18,23 11,42l-12 33c-7,19 -21,29 -34,24l-52 -20c-13,-5 -18,-23 -11,-42l12 -33c7,-19 21,-29 34,-24zm-2 27l38 15c4,2 5,8 4,11l-13 35c-1,3 -5,7 -10,6l-38 -15c-2,-1 -3,-7 -2,-10l13 -35c1,-3 5,-7 7,-6z"/>
    </g>
    <g>
     <path class="fil15" d="M3369 2669l-52 20c-13,5 -18,23 -11,42l12 33c7,19 21,29 34,24l52 -20c13,-5 18,-23 11,-42l-12 -33c-7,-19 -21,-29 -34,-24zm2 27l-38 15c-4,2 -5,8 -4,11l13 35c1,3 5,7 10,6l38 -15c2,-1 3,-7 2,-10l-13 -35c-1,-3 -5,-7 -7,-6z"/>
     <path id="1" class="fil4 str6" d="M3369 2669l-52 20c-13,5 -18,23 -11,42l12 33c7,19 21,29 34,24l52 -20c13,-5 18,-23 11,-42l-12 -33c-7,-19 -21,-29 -34,-24zm2 27l-38 15c-4,2 -5,8 -4,11l13 35c1,3 5,7 10,6l38 -15c2,-1 3,-7 2,-10l-13 -35c-1,-3 -5,-7 -7,-6z"/>
    </g>
    <g>
     <path class="fil15" d="M2889 2763l55 0c14,0 24,15 24,35l0 35c0,20 -9,35 -24,35l-55 0c-14,0 -24,-15 -24,-35l0 -35c0,-20 9,-35 24,-35zm7 26l41 0c5,0 7,6 7,9l0 38c0,3 -2,9 -7,9l-41 0c-2,0 -5,-6 -5,-9l0 -38c0,-3 2,-9 5,-9z"/>
     <path id="1" class="fil4 str6" d="M2889 2763l55 0c14,0 24,15 24,35l0 35c0,20 -9,35 -24,35l-55 0c-14,0 -24,-15 -24,-35l0 -35c0,-20 9,-35 24,-35zm7 26l41 0c5,0 7,6 7,9l0 38c0,3 -2,9 -7,9l-41 0c-2,0 -5,-6 -5,-9l0 -38c0,-3 2,-9 5,-9z"/>
    </g>
    <g>
     <path class="fil15" d="M2672 2741l55 7c14,2 22,18 20,38l-4 35c-2,20 -14,34 -28,32l-55 -7c-14,-2 -22,-18 -20,-38l4 -35c2,-20 14,-34 28,-32zm4 27l41 5c5,1 6,7 6,10l-4 38c0,3 -3,8 -8,8l-41 -5c-2,0 -4,-6 -4,-9l4 -38c0,-3 3,-8 6,-8z"/>
     <path id="1" class="fil4 str6" d="M2672 2741l55 7c14,2 22,18 20,38l-4 35c-2,20 -14,34 -28,32l-55 -7c-14,-2 -22,-18 -20,-38l4 -35c2,-20 14,-34 28,-32zm4 27l41 5c5,1 6,7 6,10l-4 38c0,3 -3,8 -8,8l-41 -5c-2,0 -4,-6 -4,-9l4 -38c0,-3 3,-8 6,-8z"/>
    </g>
    <g>
     <path class="fil15" d="M3167 2741l-55 7c-14,2 -22,18 -20,38l4 35c2,20 14,34 28,32l55 -7c14,-2 22,-18 20,-38l-4 -35c-2,-20 -14,-34 -28,-32zm-4 27l-41 5c-5,1 -6,7 -6,10l4 38c0,3 3,8 8,8l41 -5c2,0 4,-6 4,-9l-4 -38c0,-3 -3,-8 -6,-8z"/>
     <path id="1" class="fil4 str6" d="M3167 2741l-55 7c-14,2 -22,18 -20,38l4 35c2,20 14,34 28,32l55 -7c14,-2 22,-18 20,-38l-4 -35c-2,-20 -14,-34 -28,-32zm-4 27l-41 5c-5,1 -6,7 -6,10l4 38c0,3 3,8 8,8l41 -5c2,0 4,-6 4,-9l-4 -38c0,-3 -3,-8 -6,-8z"/>
    </g>
    <g>
     <path class="fil15" d="M2581 2706c34,0 59,26 59,61 0,35 -25,61 -59,61 -34,0 -59,-26 -59,-61 0,-35 25,-61 59,-61zm0 29c17,0 31,15 31,32 0,18 -14,32 -31,32 -17,0 -31,-15 -31,-32 0,-18 14,-32 31,-32z"/>
     <path id="1" class="fil4 str6" d="M2581 2706c34,0 59,26 59,61 0,35 -25,61 -59,61 -34,0 -59,-26 -59,-61 0,-35 25,-61 59,-61zm0 29c17,0 31,15 31,32 0,18 -14,32 -31,32 -17,0 -31,-15 -31,-32 0,-18 14,-32 31,-32z"/>
    </g>
    <g>
     <path class="fil15" d="M3257 2706c-34,0 -59,26 -59,61 0,35 25,61 59,61 34,0 59,-26 59,-61 0,-35 -25,-61 -59,-61zm0 29c-17,0 -31,15 -31,32 0,18 14,32 31,32 17,0 31,-15 31,-32 0,-18 -14,-32 -31,-32z"/>
     <path id="1" class="fil4 str6" d="M3257 2706c-34,0 -59,26 -59,61 0,35 25,61 59,61 34,0 59,-26 59,-61 0,-35 -25,-61 -59,-61zm0 29c-17,0 -31,15 -31,32 0,18 14,32 31,32 17,0 31,-15 31,-32 0,-18 -14,-32 -31,-32z"/>
    </g>
    <g>
     <path class="fil15" d="M2807 2747c34,0 59,26 59,61 0,35 -25,61 -59,61 -34,0 -59,-26 -59,-61 0,-35 25,-61 59,-61zm0 29c17,0 31,15 31,32 0,18 -14,32 -31,32 -17,0 -31,-15 -31,-32 0,-18 14,-32 31,-32z"/>
     <path id="1" class="fil4 str6" d="M2807 2747c34,0 59,26 59,61 0,35 -25,61 -59,61 -34,0 -59,-26 -59,-61 0,-35 25,-61 59,-61zm0 29c17,0 31,15 31,32 0,18 -14,32 -31,32 -17,0 -31,-15 -31,-32 0,-18 14,-32 31,-32z"/>
    </g>
    <g>
     <path class="fil15" d="M3031 2747c-34,0 -59,26 -59,61 0,35 25,61 59,61 34,0 59,-26 59,-61 0,-35 -25,-61 -59,-61zm0 29c-17,0 -31,15 -31,32 0,18 14,32 31,32 17,0 31,-15 31,-32 0,-18 -14,-32 -31,-32z"/>
     <path id="1" class="fil4 str6" d="M3031 2747c-34,0 -59,26 -59,61 0,35 25,61 59,61 34,0 59,-26 59,-61 0,-35 -25,-61 -59,-61zm0 29c-17,0 -31,15 -31,32 0,18 14,32 31,32 17,0 31,-15 31,-32 0,-18 -14,-32 -31,-32z"/>
    </g>
    <g>
     <path class="fil15" d="M2496 2731l67 21c5,2 8,6 7,10l-3 12c-1,4 -6,6 -11,4l-67 -21c-5,-2 -8,-6 -7,-10l3 -12c1,-4 6,-6 11,-4z"/>
     <path id="1" class="fil4 str6" d="M2496 2731l67 21c5,2 8,6 7,10l-3 12c-1,4 -6,6 -11,4l-67 -21c-5,-2 -8,-6 -7,-10l3 -12c1,-4 6,-6 11,-4z"/>
    </g>
    <g>
     <path class="fil15" d="M3342 2731l-67 21c-5,2 -8,6 -7,10l3 12c1,4 6,6 11,4l67 -21c5,-2 8,-6 7,-10l-3 -12c-1,-4 -6,-6 -11,-4z"/>
     <path id="1" class="fil4 str6" d="M3342 2731l-67 21c-5,2 -8,6 -7,10l3 12c1,4 6,6 11,4l67 -21c5,-2 8,-6 7,-10l-3 -12c-1,-4 -6,-6 -11,-4z"/>
    </g>
    <g>
     <path class="fil15" d="M2608 2769l68 16c5,1 8,5 7,9l-3 12c-1,4 -6,6 -10,5l-68 -16c-5,-1 -8,-5 -7,-9l3 -12c1,-4 6,-6 10,-5z"/>
     <path id="1" class="fil4 str6" d="M2608 2769l68 16c5,1 8,5 7,9l-3 12c-1,4 -6,6 -10,5l-68 -16c-5,-1 -8,-5 -7,-9l3 -12c1,-4 6,-6 10,-5z"/>
    </g>
    <g>
     <path class="fil15" d="M3230 2769l-68 16c-5,1 -8,5 -7,9l3 12c1,4 6,6 10,5l68 -16c5,-1 8,-5 7,-9l-3 -12c-1,-4 -6,-6 -10,-5z"/>
     <path id="1" class="fil4 str6" d="M3230 2769l-68 16c-5,1 -8,5 -7,9l3 12c1,4 6,6 10,5l68 -16c5,-1 8,-5 7,-9l-3 -12c-1,-4 -6,-6 -10,-5z"/>
    </g>
    <g>
     <path class="fil15" d="M2726 2785l68 19c5,1 8,6 7,10l-3 12c-1,4 -6,6 -11,5l-68 -19c-5,-1 -8,-6 -7,-10l3 -12c1,-4 6,-6 11,-5z"/>
     <path id="1" class="fil4 str6" d="M2726 2785l68 19c5,1 8,6 7,10l-3 12c-1,4 -6,6 -11,5l-68 -19c-5,-1 -8,-6 -7,-10l3 -12c1,-4 6,-6 11,-5z"/>
    </g>
    <g>
     <path class="fil15" d="M3113 2785l-68 19c-5,1 -8,6 -7,10l3 12c1,4 6,6 11,5l68 -19c5,-1 8,-6 7,-10l-3 -12c-1,-4 -6,-6 -11,-5z"/>
     <path id="1" class="fil4 str6" d="M3113 2785l-68 19c-5,1 -8,6 -7,10l3 12c1,4 6,6 11,5l68 -19c5,-1 8,-6 7,-10l-3 -12c-1,-4 -6,-6 -11,-5z"/>
    </g>
    <g>
     <path class="fil15" d="M2832 2799l69 10c5,1 9,5 8,9l-2 12c-1,4 -5,7 -10,6l-69 -10c-5,-1 -9,-5 -8,-9l2 -12c1,-4 5,-7 10,-6z"/>
     <path id="1" class="fil4 str6" d="M2832 2799l69 10c5,1 9,5 8,9l-2 12c-1,4 -5,7 -10,6l-69 -10c-5,-1 -9,-5 -8,-9l2 -12c1,-4 5,-7 10,-6z"/>
    </g>
    <g>
     <path class="fil15" d="M3007 2799l-69 10c-5,1 -9,5 -8,9l2 12c1,4 5,7 10,6l69 -10c5,-1 9,-5 8,-9l-2 -12c-1,-4 -5,-7 -10,-6z"/>
     <path id="1" class="fil4 str6" d="M3007 2799l-69 10c-5,1 -9,5 -8,9l2 12c1,4 5,7 10,6l69 -10c5,-1 9,-5 8,-9l-2 -12c-1,-4 -5,-7 -10,-6z"/>
    </g>
   </g>
  </g>
 </g>
</svg>
